<?xml version="1.0" encoding="UTF-8"?>
<svg version="1.1" xmlns="http://www.w3.org/2000/svg" width="512" height="512">
<path d="M0 0 C3 1 3 1 4.69140625 4.140625 C5.31982753 5.50825616 5.94320147 6.87821371 6.5625 8.25 C11.65061947 18.9447734 19.01715518 31.50857759 30 37 C30.804375 37.825 31.60875 38.65 32.4375 39.5 C34.81120237 42.17936637 34.81120237 42.17936637 38 43 C38.99 43.66 39.98 44.32 41 45 C42.3285831 45.67608371 43.66204094 46.34266615 45 47 C46.093125 47.61875 47.18625 48.2375 48.3125 48.875 C64.05055031 56.5846158 81.18961443 57.15136763 97.77734375 52.1484375 C101.76667592 50.72678458 105.31526147 49.08570105 109 47 C109.65097656 46.67515625 110.30195313 46.3503125 110.97265625 46.015625 C112.9402051 45.02995505 114.84415048 43.97452857 116.75 42.875 C117.8225 42.25625 118.895 41.6375 120 41 C120 40.34 120 39.68 120 39 C120.639375 38.896875 121.27875 38.79375 121.9375 38.6875 C122.618125 38.460625 123.29875 38.23375 124 38 C124.33 37.01 124.66 36.02 125 35 C125.58652344 34.87109375 126.17304688 34.7421875 126.77734375 34.609375 C130.02679958 33.71848729 131.36812092 31.75998351 133.5625 29.25 C134.32691406 28.38890625 135.09132813 27.5278125 135.87890625 26.640625 C138.32273404 23.59821693 140.25775464 20.48449072 142 17 C142.639375 16.29875 143.27875 15.5975 143.9375 14.875 C146.53921455 11.2483676 147.11512848 8.35061831 148 4 C148.66 4 149.32 4 150 4 C150.66 2.68 151.32 1.36 152 0 C156.4361658 1.44433305 160.82092168 2.91046084 165 5 C165.61875 5.28875 166.2375 5.5775 166.875 5.875 C169 7 169 7 170.8125 8.4375 C173.68204182 10.48717273 176.74315836 11.67313859 180 13 C180.66 13.33 181.32 13.66 182 14 C182.61875 14.28875 183.2375 14.5775 183.875 14.875 C186 16 186 16 187.8125 17.4375 C190.68204182 19.48717273 193.74315836 20.67313859 197 22 C197.66 22.33 198.32 22.66 199 23 C200.9959722 23.67863055 202.99568551 24.34641919 205 25 C205 25.66 205 26.32 205 27 C205.89203125 27.40992187 206.7840625 27.81984375 207.703125 28.2421875 C208.87359375 28.78101562 210.0440625 29.31984375 211.25 29.875 C212.41015625 30.40867187 213.5703125 30.94234375 214.765625 31.4921875 C221.61200924 34.68385938 221.61200924 34.68385938 223.6875 36.375 C226.55571635 38.39050338 229.56468733 39.66371087 232.78125 41.03515625 C235.70404361 42.30615981 238.36301134 43.50980708 240.8984375 45.4609375 C243.35364566 47.25898958 245.84096866 48.4018272 248.625 49.625 C249.58664062 50.05039063 250.54828125 50.47578125 251.5390625 50.9140625 C252.35117187 51.27242187 253.16328125 51.63078125 254 52 C256.81722606 53.40861303 256.9027747 54.92450231 257.96875 57.8671875 C258.36529785 58.95306152 258.7618457 60.03893555 259.17041016 61.15771484 C259.6091748 62.38441895 260.04793945 63.61112305 260.5 64.875 C260.97797435 66.19626329 261.4563414 67.51738458 261.93505859 68.83837891 C268.54844611 87.14401338 274.97356316 105.51824953 281.43267822 123.87869263 C284.23076486 131.82756259 287.04494817 139.77061359 289.8671875 147.7109375 C290.25919342 148.81452606 290.65119934 149.91811462 291.05508423 151.05514526 C293.33180819 157.46466866 293.33180819 157.46466866 295.61260986 163.8727417 C296.64987513 166.78428645 297.68454931 169.69674056 298.71875 172.609375 C299.17530472 173.88716324 299.17530472 173.88716324 299.64108276 175.19076538 C303.8686581 187.11743272 303.8686581 187.11743272 304.1875 191.6875 C302.42897137 195.11200313 299.72437733 195.76672854 296.2265625 197.10546875 C293.77514851 198.00218403 293.77514851 198.00218403 291 200 C289.33333333 200.33333333 287.66666667 200.66666667 286 201 C284.515 201.99 284.515 201.99 283 203 C281.33333333 203.33333333 279.66666667 203.66666667 278 204 C276.515 204.99 276.515 204.99 275 206 C273.33333333 206.33333333 271.66666667 206.66666667 270 207 C268.515 207.99 268.515 207.99 267 209 C265.33333333 209.33333333 263.66666667 209.66666667 262 210 C260.515 210.99 260.515 210.99 259 212 C257.68 212 256.36 212 255 212 C254.67 212.66 254.34 213.32 254 214 C248.33966222 216.58190846 244.18943397 217.33157682 238 217 C238 217.99 238 218.98 238 220 C235.36 220 232.72 220 230 220 C230 220.99 230 221.98 230 223 C229.236875 222.938125 228.47375 222.87625 227.6875 222.8125 C224.95474688 222.74101915 224.95474688 222.74101915 223.1875 224.5 C222.795625 224.995 222.40375 225.49 222 226 C218.125 224.25 218.125 224.25 217 222 C216.67 303.84 216.34 385.68 216 470 C215.67 470 215.34 470 215 470 C215 383.87 215 297.74 215 209 C214.93941406 227.90152344 214.87882812 246.80304688 214.81640625 266.27734375 C214.77593746 278.2128928 214.73522445 290.14844026 214.69335938 302.08398438 C214.6713919 308.35050429 214.64948669 314.61702442 214.62768555 320.88354492 C214.62495036 321.66900214 214.62221517 322.45445936 214.6193971 323.26371831 C214.5752721 335.96109202 214.53466558 348.65847469 214.49534739 361.3558641 C214.45494876 374.37701557 214.41079518 387.39815036 214.36312145 400.41927725 C214.33379968 408.46054106 214.30744234 416.50180355 214.28482103 424.54308904 C214.26719158 430.69864898 214.24434978 436.8541793 214.21950912 443.00971413 C214.21011704 445.54261573 214.2024496 448.07552437 214.19658089 450.60843658 C214.18835621 454.05006397 214.17409008 457.49161297 214.15821838 460.93321228 C214.15724028 461.94972789 214.15626217 462.9662435 214.15525442 464.01356262 C214.14977998 464.92820331 214.14430554 465.842844 214.1386652 466.78520107 C214.13467814 467.97847221 214.13467814 467.97847221 214.13061053 469.19584984 C214 471 214 471 213 472 C211.54850617 472.09846198 210.09223635 472.12739114 208.6374073 472.12863445 C207.68978275 472.1318589 206.74215821 472.13508335 205.76581776 472.1384055 C204.71243903 472.1368569 203.65906029 472.1353083 202.57376099 472.13371277 C201.46429702 472.13597833 200.35483305 472.13824388 199.21174896 472.14057809 C195.46293298 472.14695058 191.71415285 472.14608666 187.96533203 472.14526367 C185.29028181 472.14825315 182.61523447 472.15162648 179.94018555 472.15544128 C173.40942511 472.16376449 166.87867369 472.16649688 160.34790839 472.16705366 C155.04141511 472.16752807 149.73492481 472.16957904 144.42843246 472.17275429 C129.39772836 472.18156572 114.36703141 472.18617295 99.33632471 472.18542381 C98.52521548 472.18538386 97.71410626 472.1853439 96.87841797 472.18530273 C96.06632318 472.18526185 95.2542284 472.18522097 94.41752468 472.18517885 C81.2537548 472.18477233 68.09001351 472.19434217 54.9262519 472.2084411 C41.42368554 472.22278926 27.92113314 472.22971213 14.41855896 472.22884732 C6.83233234 472.22851479 -0.75386431 472.23128623 -8.34008408 472.24202538 C-14.79913346 472.25110994 -21.25813929 472.25332257 -27.71719228 472.24651595 C-31.0147401 472.24324023 -34.31218646 472.24430855 -37.60972977 472.2518692 C-41.17982704 472.25952713 -44.74970161 472.25498561 -48.3197937 472.24723816 C-49.89316964 472.2549535 -49.89316964 472.2549535 -51.49833095 472.26282471 C-52.45117099 472.25822592 -53.40401104 472.25362712 -54.38572502 472.24888897 C-55.21031523 472.24910634 -56.03490543 472.24932371 -56.88448322 472.24954766 C-59 472 -59 472 -62 470 C-62.37900752 468.16141975 -62.37900752 468.16141975 -62.38476086 465.88079643 C-62.3942174 465.01293223 -62.40367394 464.14506803 -62.41341704 463.25090492 C-62.40856947 462.29177542 -62.40372189 461.33264593 -62.39872742 460.3444519 C-62.40537424 459.33002207 -62.41202107 458.31559223 -62.41886932 457.2704221 C-62.43761762 453.84928935 -62.43488607 450.4285027 -62.43237305 447.00732422 C-62.44138298 444.56370546 -62.45170828 442.12009124 -62.46325684 439.67648315 C-62.48519844 434.40428437 -62.49793545 429.13218483 -62.50238609 423.85995102 C-62.50883679 416.23715264 -62.53175498 408.61447427 -62.55872939 400.99172415 C-62.60204159 388.62519624 -62.63198297 376.25867336 -62.65356445 363.89208984 C-62.67456089 351.87709067 -62.70182427 339.86213277 -62.73754883 327.84716797 C-62.73974765 327.10691851 -62.74194648 326.36666906 -62.74421193 325.6039878 C-62.75528125 321.89047908 -62.76647412 318.17697075 -62.77772844 314.46346259 C-62.87097628 283.64234277 -62.94232314 252.82120789 -63 222 C-63.99 223.32 -64.98 224.64 -66 226 C-67.9375 225.625 -67.9375 225.625 -70 225 C-70.33 224.34 -70.66 223.68 -71 223 C-74.810068 221.20639095 -78.80253033 219.8370258 -82.75 218.375 C-84.39742187 217.74464844 -84.39742187 217.74464844 -86.078125 217.1015625 C-87.1403125 216.70453125 -88.2025 216.3075 -89.296875 215.8984375 C-90.26979492 215.53411621 -91.24271484 215.16979492 -92.24511719 214.79443359 C-94.98316212 214.00485559 -97.16891405 213.84329069 -100 214 C-100 213.01 -100 212.02 -100 211 C-102.64 211 -105.28 211 -108 211 C-108.33 210.34 -108.66 209.68 -109 209 C-110.155 208.835 -111.31 208.67 -112.5 208.5 C-113.655 208.335 -114.81 208.17 -116 208 C-116.33 207.34 -116.66 206.68 -117 206 C-118.155 205.835 -119.31 205.67 -120.5 205.5 C-121.655 205.335 -122.81 205.17 -124 205 C-124.495 204.01 -124.495 204.01 -125 203 C-126.32 203 -127.64 203 -129 203 C-129.495 202.01 -129.495 202.01 -130 201 C-132.31850007 200.38567131 -132.31850007 200.38567131 -135 200 C-137.75 199.5625 -137.75 199.5625 -140 199 C-140.33 198.34 -140.66 197.68 -141 197 C-142.32148827 196.62243192 -143.65835921 196.2981424 -145 196 C-146.6720695 195.34700244 -148.33946961 194.68180718 -150 194 C-149.88658363 191.68690295 -149.75896193 189.37449815 -149.625 187.0625 C-149.55539063 185.77472656 -149.48578125 184.48695313 -149.4140625 183.16015625 C-149.27742188 182.11730469 -149.14078125 181.07445312 -149 180 C-148.34 179.67 -147.68 179.34 -147 179 C-147 177.35 -147 175.7 -147 174 C-146.34 173.67 -145.68 173.34 -145 173 C-144.04272134 170.78375485 -143.18218062 168.52521086 -142.375 166.25 C-141.92898437 165.01765625 -141.48296875 163.7853125 -141.0234375 162.515625 C-139.86253262 159.16758946 -139.86253262 159.16758946 -140.0390625 156.234375 C-140 154 -140 154 -138.63671875 152.5546875 C-138.09660156 152.04164063 -137.55648437 151.52859375 -137 151 C-135.77059215 148.22501256 -135.77059215 148.22501256 -134.8125 145.125 C-134.46832031 144.09632813 -134.12414062 143.06765625 -133.76953125 142.0078125 C-133.04711169 139.18414215 -132.84508663 136.89527739 -133 134 C-132.34 134 -131.68 134 -131 134 C-130.79503906 133.24074219 -130.59007812 132.48148438 -130.37890625 131.69921875 C-130.10949219 130.70535156 -129.84007812 129.71148437 -129.5625 128.6875 C-129.29566406 127.70136719 -129.02882813 126.71523437 -128.75390625 125.69921875 C-128.02893994 123.10361398 -127.31543916 120.62676391 -126.1015625 118.21484375 C-124.69560002 115.38796175 -123.53579703 112.498434 -122.375 109.5625 C-121.70597656 107.89380859 -121.70597656 107.89380859 -121.0234375 106.19140625 C-120.0633732 103.19761797 -119.91089795 101.09629617 -120 98 C-119.54625 97.566875 -119.0925 97.13375 -118.625 96.6875 C-116.38862633 94.36511195 -116.09856768 92.03547135 -115.4296875 88.9375 C-114.72093571 85.74167375 -113.52504129 82.88614906 -112.16796875 79.92578125 C-109.99961783 75.0864296 -108.1257523 70.16900578 -106.3125 65.1875 C-105.85133789 63.93936523 -105.85133789 63.93936523 -105.38085938 62.66601562 C-103.73647892 58.32451334 -103.73647892 58.32451334 -102.60620117 53.8371582 C-102 52 -102 52 -98.8125 50.375 C-96.53884352 49.51193856 -94.25043987 48.75524567 -91.9375 48 C-88.78991044 46.92848015 -85.94225115 45.54117917 -83 44 C-83 43.34 -83 42.68 -83 42 C-82.443125 41.82984375 -81.88625 41.6596875 -81.3125 41.484375 C-75.90409391 39.76684063 -71.01937104 37.64657745 -66 35 C-66 34.34 -66 33.68 -66 33 C-63.37427151 31.91881768 -60.76901547 30.92628153 -58.0625 30.0625 C-54.87739487 28.95746353 -51.98348305 27.56277684 -49 26 C-49 25.34 -49 24.68 -49 24 C-45.61343841 22.5099129 -42.34466925 21.10813153 -38.8125 20 C-35.24162339 18.73035498 -32.93375625 16.7831504 -30.0625 14.375 C-28 13 -28 13 -25.703125 12.57421875 C-22.7061645 11.93758119 -20.40093321 10.84848527 -17.6875 9.4375 C-16.80449219 8.98246094 -15.92148438 8.52742188 -15.01171875 8.05859375 C-14.34785156 7.70925781 -13.68398437 7.35992187 -13 7 C-13 6.34 -13 5.68 -13 5 C-9.37718387 3.50825218 -5.71582854 2.23860951 -2 1 C-1.34 0.67 -0.68 0.34 0 0 Z M-61 204 C-61.86208599 210.65925399 -62.12917421 217.12903151 -62.08229065 223.83900452 C-62.07906152 224.8961673 -62.07583239 225.95333008 -62.07250541 227.04252809 C-62.06049215 230.56623175 -62.04110675 234.08985513 -62.02172852 237.61352539 C-62.01157917 240.14683867 -62.00188621 242.68015381 -61.99261475 245.21347046 C-61.9716652 250.65797312 -61.94755474 256.10244703 -61.92053413 261.54692268 C-61.88147299 269.41859881 -61.84816654 277.29029113 -61.81623887 285.16199904 C-61.76427608 297.93508571 -61.70769613 310.70814756 -61.64819336 323.48120117 C-61.59042144 335.88483719 -61.53483597 348.28847985 -61.48217773 360.69213867 C-61.47892802 361.45743202 -61.4756783 362.22272538 -61.4723301 363.01120944 C-61.45603973 366.85067989 -61.43979221 370.69015052 -61.42356598 374.52962124 C-61.28901938 406.35311171 -61.14689422 438.17656406 -61 470 C-60.67 470 -60.34 470 -60 470 C-60 382.22 -60 294.44 -60 204 C-60.33 204 -60.66 204 -61 204 Z M216 213 C216 214.65 216 216.3 216 218 C216.33 218 216.66 218 217 218 C217 216.35 217 214.7 217 213 C216.67 213 216.34 213 216 213 Z M-63 214 C-62 218 -62 218 -62 218 Z M217 218 C218 220 218 220 218 220 Z M-59 470 C-59 470.33 -59 470.66 -59 471 C30.43 471 119.86 471 212 471 C212 470.67 212 470.34 212 470 C122.57 470 33.14 470 -59 470 Z " fill="#000000" transform="translate(179,21)"/>
<path d="M0 0 C2.31 0 4.62 0 7 0 C7 0.33 7 0.66 7 1 C4.69 1 2.38 1 0 1 C0 0.67 0 0.34 0 0 Z " fill="#000000" transform="translate(258,75)"/>
<path d="M0 0 C1.98 0 3.96 0 6 0 C6 0.33 6 0.66 6 1 C4.02 1 2.04 1 0 1 C0 0.67 0 0.34 0 0 Z " fill="#000000" transform="translate(248,75)"/>
<path d="M0 0 C4 1 4 1 4 1 Z " fill="#000000" transform="translate(266,74)"/>
<path d="M0 0 C4 1 4 1 4 1 Z " fill="#000000" transform="translate(242,74)"/>
<path d="M0 0 C3 1 3 1 3 1 Z " fill="#000000" transform="translate(271,73)"/>
<path d="M0 0 C3 1 3 1 3 1 Z " fill="#000000" transform="translate(238,73)"/>
<path d="M0 0 C2 1 2 1 2 1 Z " fill="#000000" transform="translate(404,244)"/>
<path d="M0 0 C2 1 2 1 2 1 Z " fill="#000000" transform="translate(106,244)"/>
<path d="M0 0 C2 1 2 1 2 1 Z " fill="#000000" transform="translate(103,243)"/>
<path d="M0 0 C2 1 2 1 2 1 Z " fill="#000000" transform="translate(410,242)"/>
<path d="M0 0 C2 1 2 1 2 1 Z " fill="#000000" transform="translate(101,242)"/>
<path d="M0 0 C2 1 2 1 2 1 Z " fill="#000000" transform="translate(412,241)"/>
<path d="M0 0 C2 1 2 1 2 1 Z " fill="#000000" transform="translate(98,241)"/>
<path d="M0 0 C2 1 2 1 2 1 Z " fill="#000000" transform="translate(95,240)"/>
<path d="M0 0 C2 1 2 1 2 1 Z " fill="#000000" transform="translate(418,239)"/>
<path d="M0 0 C2 1 2 1 2 1 Z " fill="#000000" transform="translate(93,239)"/>
<path d="M0 0 C2 1 2 1 2 1 Z " fill="#000000" transform="translate(420,238)"/>
<path d="M0 0 C2 1 2 1 2 1 Z " fill="#000000" transform="translate(90,238)"/>
<path d="M0 0 C2 1 2 1 2 1 Z " fill="#000000" transform="translate(87,237)"/>
<path d="M0 0 C2 1 2 1 2 1 Z " fill="#000000" transform="translate(85,236)"/>
<path d="M0 0 C2 1 2 1 2 1 Z " fill="#000000" transform="translate(82,235)"/>
<path d="M0 0 C2 1 2 1 2 1 Z " fill="#000000" transform="translate(434,233)"/>
<path d="M0 0 C2 1 2 1 2 1 Z " fill="#000000" transform="translate(76,233)"/>
<path d="M0 0 C2 1 2 1 2 1 Z " fill="#000000" transform="translate(74,232)"/>
<path d="M0 0 C2 1 2 1 2 1 Z " fill="#000000" transform="translate(442,230)"/>
<path d="M0 0 C2 1 2 1 2 1 Z " fill="#000000" transform="translate(68,230)"/>
<path d="M0 0 C2 1 2 1 2 1 Z " fill="#000000" transform="translate(450,227)"/>
<path d="M0 0 C2 1 2 1 2 1 Z " fill="#000000" transform="translate(60,227)"/>
<path d="M0 0 C2 1 2 1 2 1 Z " fill="#000000" transform="translate(458,224)"/>
<path d="M0 0 C2 1 2 1 2 1 Z " fill="#000000" transform="translate(52,224)"/>
<path d="M0 0 C2 1 2 1 2 1 Z " fill="#000000" transform="translate(47,222)"/>
<path d="M0 0 C2 1 2 1 2 1 Z " fill="#000000" transform="translate(466,221)"/>
<path d="M0 0 C2 1 2 1 2 1 Z " fill="#000000" transform="translate(44,221)"/>
<path d="M0 0 C2 1 2 1 2 1 Z " fill="#000000" transform="translate(474,218)"/>
<path d="M0 0 C2 1 2 1 2 1 Z " fill="#000000" transform="translate(36,218)"/>
<path d="M0 0 C2 1 2 1 2 1 Z " fill="#000000" transform="translate(476,217)"/>
<path d="M0 0 C2 1 2 1 2 1 Z " fill="#000000" transform="translate(479,216)"/>
<path d="M0 0 C2 1 2 1 2 1 Z " fill="#000000" transform="translate(31,216)"/>
<path d="" fill="#000000" transform="translate(0,0)"/>
<path d="" fill="#000000" transform="translate(0,0)"/>
<path d="" fill="#000000" transform="translate(0,0)"/>
<path d="" fill="#000000" transform="translate(0,0)"/>
<path d="" fill="#000000" transform="translate(0,0)"/>
<path d="" fill="#000000" transform="translate(0,0)"/>
<path d="" fill="#000000" transform="translate(0,0)"/>
<path d="" fill="#000000" transform="translate(0,0)"/>
<path d="" fill="#000000" transform="translate(0,0)"/>
<path d="" fill="#000000" transform="translate(0,0)"/>
<path d="" fill="#000000" transform="translate(0,0)"/>
<path d="" fill="#000000" transform="translate(0,0)"/>
<path d="" fill="#000000" transform="translate(0,0)"/>
<path d="" fill="#000000" transform="translate(0,0)"/>
<path d="" fill="#000000" transform="translate(0,0)"/>
<path d="" fill="#000000" transform="translate(0,0)"/>
<path d="" fill="#000000" transform="translate(0,0)"/>
<path d="" fill="#000000" transform="translate(0,0)"/>
<path d="" fill="#000000" transform="translate(0,0)"/>
<path d="" fill="#000000" transform="translate(0,0)"/>
<path d="" fill="#000000" transform="translate(0,0)"/>
<path d="" fill="#000000" transform="translate(0,0)"/>
<path d="" fill="#000000" transform="translate(0,0)"/>
<path d="" fill="#000000" transform="translate(0,0)"/>
<path d="" fill="#000000" transform="translate(0,0)"/>
<path d="" fill="#000000" transform="translate(0,0)"/>
<path d="" fill="#000000" transform="translate(0,0)"/>
<path d="" fill="#000000" transform="translate(0,0)"/>
<path d="" fill="#000000" transform="translate(0,0)"/>
<path d="" fill="#000000" transform="translate(0,0)"/>
<path d="" fill="#000000" transform="translate(0,0)"/>
<path d="" fill="#000000" transform="translate(0,0)"/>
<path d="" fill="#000000" transform="translate(0,0)"/>
<path d="" fill="#000000" transform="translate(0,0)"/>
<path d="" fill="#000000" transform="translate(0,0)"/>
<path d="" fill="#000000" transform="translate(0,0)"/>
<path d="" fill="#000000" transform="translate(0,0)"/>
<path d="" fill="#000000" transform="translate(0,0)"/>
<path d="" fill="#000000" transform="translate(0,0)"/>
<path d="" fill="#000000" transform="translate(0,0)"/>
<path d="" fill="#000000" transform="translate(0,0)"/>
<path d="" fill="#000000" transform="translate(0,0)"/>
<path d="" fill="#000000" transform="translate(0,0)"/>
<path d="" fill="#000000" transform="translate(0,0)"/>
<path d="" fill="#000000" transform="translate(0,0)"/>
<path d="" fill="#000000" transform="translate(0,0)"/>
<path d="" fill="#000000" transform="translate(0,0)"/>
<path d="" fill="#000000" transform="translate(0,0)"/>
<path d="" fill="#000000" transform="translate(0,0)"/>
<path d="" fill="#000000" transform="translate(0,0)"/>
<path d="" fill="#000000" transform="translate(0,0)"/>
<path d="" fill="#000000" transform="translate(0,0)"/>
<path d="" fill="#000000" transform="translate(0,0)"/>
<path d="" fill="#000000" transform="translate(0,0)"/>
<path d="" fill="#000000" transform="translate(0,0)"/>
<path d="" fill="#000000" transform="translate(0,0)"/>
<path d="" fill="#000000" transform="translate(0,0)"/>
<path d="" fill="#000000" transform="translate(0,0)"/>
<path d="" fill="#000000" transform="translate(0,0)"/>
<path d="" fill="#000000" transform="translate(0,0)"/>
<path d="" fill="#000000" transform="translate(0,0)"/>
<path d="" fill="#000000" transform="translate(0,0)"/>
<path d="" fill="#000000" transform="translate(0,0)"/>
<path d="" fill="#000000" transform="translate(0,0)"/>
<path d="" fill="#000000" transform="translate(0,0)"/>
<path d="" fill="#000000" transform="translate(0,0)"/>
<path d="" fill="#000000" transform="translate(0,0)"/>
<path d="" fill="#000000" transform="translate(0,0)"/>
<path d="" fill="#000000" transform="translate(0,0)"/>
<path d="" fill="#000000" transform="translate(0,0)"/>
<path d="" fill="#000000" transform="translate(0,0)"/>
<path d="" fill="#000000" transform="translate(0,0)"/>
<path d="" fill="#000000" transform="translate(0,0)"/>
<path d="" fill="#000000" transform="translate(0,0)"/>
<path d="" fill="#000000" transform="translate(0,0)"/>
<path d="" fill="#000000" transform="translate(0,0)"/>
<path d="" fill="#000000" transform="translate(0,0)"/>
<path d="" fill="#000000" transform="translate(0,0)"/>
<path d="" fill="#000000" transform="translate(0,0)"/>
<path d="" fill="#000000" transform="translate(0,0)"/>
<path d="" fill="#000000" transform="translate(0,0)"/>
<path d="" fill="#000000" transform="translate(0,0)"/>
<path d="" fill="#000000" transform="translate(0,0)"/>
<path d="" fill="#000000" transform="translate(0,0)"/>
<path d="M0 0 C2 1 2 1 2 1 Z " fill="#000000" transform="translate(275,72)"/>
<path d="M0 0 C2 1 2 1 2 1 Z " fill="#000000" transform="translate(235,72)"/>
<path d="M0 0 C2 1 2 1 2 1 Z " fill="#000000" transform="translate(278,71)"/>
<path d="M0 0 C2 1 2 1 2 1 Z " fill="#000000" transform="translate(232,71)"/>
<path d="M0 0 C2 1 2 1 2 1 Z " fill="#000000" transform="translate(281,70)"/>
<path d="M0 0 C2 1 2 1 2 1 Z " fill="#000000" transform="translate(229,70)"/>
<path d="M0 0 C2 1 2 1 2 1 Z " fill="#000000" transform="translate(426,69)"/>
<path d="M0 0 C2 1 2 1 2 1 Z " fill="#000000" transform="translate(283,69)"/>
<path d="M0 0 C2 1 2 1 2 1 Z " fill="#000000" transform="translate(227,69)"/>
<path d="M0 0 C2 1 2 1 2 1 Z " fill="#000000" transform="translate(424,68)"/>
<path d="M0 0 C2 1 2 1 2 1 Z " fill="#000000" transform="translate(86,68)"/>
<path d="M0 0 C2 1 2 1 2 1 Z " fill="#000000" transform="translate(422,67)"/>
<path d="M0 0 C2 1 2 1 2 1 Z " fill="#000000" transform="translate(88,67)"/>
<path d="M0 0 C2 1 2 1 2 1 Z " fill="#000000" transform="translate(420,66)"/>
<path d="M0 0 C2 1 2 1 2 1 Z " fill="#000000" transform="translate(90,66)"/>
<path d="M0 0 C2 1 2 1 2 1 Z " fill="#000000" transform="translate(418,65)"/>
<path d="M0 0 C2 1 2 1 2 1 Z " fill="#000000" transform="translate(92,65)"/>
<path d="M0 0 C2 1 2 1 2 1 Z " fill="#000000" transform="translate(293,64)"/>
<path d="M0 0 C2 1 2 1 2 1 Z " fill="#000000" transform="translate(217,64)"/>
<path d="M0 0 C2 1 2 1 2 1 Z " fill="#000000" transform="translate(94,64)"/>
<path d="M0 0 C2 1 2 1 2 1 Z " fill="#000000" transform="translate(296,62)"/>
<path d="M0 0 C2 1 2 1 2 1 Z " fill="#000000" transform="translate(407,59)"/>
<path d="M0 0 C2 1 2 1 2 1 Z " fill="#000000" transform="translate(103,59)"/>
<path d="M0 0 C2 1 2 1 2 1 Z " fill="#000000" transform="translate(405,58)"/>
<path d="M0 0 C2 1 2 1 2 1 Z " fill="#000000" transform="translate(105,58)"/>
<path d="M0 0 C2 1 2 1 2 1 Z " fill="#000000" transform="translate(403,57)"/>
<path d="M0 0 C2 1 2 1 2 1 Z " fill="#000000" transform="translate(107,57)"/>
<path d="M0 0 C2 1 2 1 2 1 Z " fill="#000000" transform="translate(401,56)"/>
<path d="M0 0 C2 1 2 1 2 1 Z " fill="#000000" transform="translate(109,56)"/>
<path d="M0 0 C2 1 2 1 2 1 Z " fill="#000000" transform="translate(111,55)"/>
<path d="M0 0 C2 1 2 1 2 1 Z " fill="#000000" transform="translate(390,50)"/>
<path d="M0 0 C2 1 2 1 2 1 Z " fill="#000000" transform="translate(120,50)"/>
<path d="M0 0 C2 1 2 1 2 1 Z " fill="#000000" transform="translate(388,49)"/>
<path d="M0 0 C2 1 2 1 2 1 Z " fill="#000000" transform="translate(122,49)"/>
<path d="M0 0 C2 1 2 1 2 1 Z " fill="#000000" transform="translate(386,48)"/>
<path d="M0 0 C2 1 2 1 2 1 Z " fill="#000000" transform="translate(124,48)"/>
<path d="M0 0 C2 1 2 1 2 1 Z " fill="#000000" transform="translate(384,47)"/>
<path d="M0 0 C2 1 2 1 2 1 Z " fill="#000000" transform="translate(126,47)"/>
<path d="M0 0 C2 1 2 1 2 1 Z " fill="#000000" transform="translate(128,46)"/>
<path d="M0 0 C2 1 2 1 2 1 Z " fill="#000000" transform="translate(373,41)"/>
<path d="M0 0 C2 1 2 1 2 1 Z " fill="#000000" transform="translate(137,41)"/>
<path d="M0 0 C2 1 2 1 2 1 Z " fill="#000000" transform="translate(371,40)"/>
<path d="M0 0 C2 1 2 1 2 1 Z " fill="#000000" transform="translate(139,40)"/>
<path d="M0 0 C2 1 2 1 2 1 Z " fill="#000000" transform="translate(369,39)"/>
<path d="M0 0 C2 1 2 1 2 1 Z " fill="#000000" transform="translate(141,39)"/>
<path d="M0 0 C2 1 2 1 2 1 Z " fill="#000000" transform="translate(367,38)"/>
<path d="M0 0 C2 1 2 1 2 1 Z " fill="#000000" transform="translate(143,38)"/>
<path d="M0 0 C2 1 2 1 2 1 Z " fill="#000000" transform="translate(365,37)"/>
<path d="M0 0 C2 1 2 1 2 1 Z " fill="#000000" transform="translate(145,37)"/>
<path d="" fill="#000000" transform="translate(0,0)"/>
<path d="" fill="#000000" transform="translate(0,0)"/>
<path d="M0 0 C2 1 2 1 2 1 Z " fill="#000000" transform="translate(356,32)"/>
<path d="M0 0 C2 1 2 1 2 1 Z " fill="#000000" transform="translate(354,31)"/>
<path d="M0 0 C2 1 2 1 2 1 Z " fill="#000000" transform="translate(156,31)"/>
<path d="M0 0 C2 1 2 1 2 1 Z " fill="#000000" transform="translate(352,30)"/>
<path d="M0 0 C2 1 2 1 2 1 Z " fill="#000000" transform="translate(158,30)"/>
<path d="M0 0 C2 1 2 1 2 1 Z " fill="#000000" transform="translate(350,29)"/>
<path d="M0 0 C2 1 2 1 2 1 Z " fill="#000000" transform="translate(160,29)"/>
<path d="M0 0 C2 1 2 1 2 1 Z " fill="#000000" transform="translate(348,28)"/>
<path d="M0 0 C2 1 2 1 2 1 Z " fill="#000000" transform="translate(162,28)"/>
<path d="M0 0 C2 1 2 1 2 1 Z " fill="#000000" transform="translate(164,27)"/>
<path d="" fill="#000000" transform="translate(0,0)"/>
<path d="" fill="#000000" transform="translate(0,0)"/>
<path d="" fill="#000000" transform="translate(0,0)"/>
<path d="M0 0 C2 1 2 1 2 1 Z " fill="#000000" transform="translate(339,23)"/>
<path d="M0 0 C2 1 2 1 2 1 Z " fill="#000000" transform="translate(337,22)"/>
<path d="M0 0 C2 1 2 1 2 1 Z " fill="#000000" transform="translate(173,22)"/>
<path d="M0 0 C2 1 2 1 2 1 Z " fill="#000000" transform="translate(335,21)"/>
<path d="M0 0 C2 1 2 1 2 1 Z " fill="#000000" transform="translate(175,21)"/>
<path d="M0 0 C2 1 2 1 2 1 Z " fill="#000000" transform="translate(333,20)"/>
<path d="M0 0 C2 1 2 1 2 1 Z " fill="#000000" transform="translate(177,20)"/>
<path d="M0 0 C2 1 2 1 2 1 Z " fill="#000000" transform="translate(331,19)"/>
<path d="M0 0 C2 1 2 1 2 1 Z " fill="#000000" transform="translate(179,19)"/>
<path d="" fill="#000000" transform="translate(0,0)"/>
<path d="" fill="#000000" transform="translate(0,0)"/>
<path d="" fill="#000000" transform="translate(0,0)"/>
<path d="" fill="#000000" transform="translate(0,0)"/>
<path d="" fill="#000000" transform="translate(0,0)"/>
<path d="" fill="#000000" transform="translate(0,0)"/>
<path d="" fill="#000000" transform="translate(0,0)"/>
<path d="" fill="#000000" transform="translate(0,0)"/>
<path d="" fill="#000000" transform="translate(0,0)"/>
<path d="" fill="#000000" transform="translate(0,0)"/>
<path d="" fill="#000000" transform="translate(0,0)"/>
<path d="" fill="#000000" transform="translate(0,0)"/>
<path d="" fill="#000000" transform="translate(0,0)"/>
<path d="" fill="#000000" transform="translate(0,0)"/>
<path d="" fill="#000000" transform="translate(0,0)"/>
<path d="" fill="#000000" transform="translate(0,0)"/>
<path d="" fill="#000000" transform="translate(0,0)"/>
<path d="" fill="#000000" transform="translate(0,0)"/>
<path d="" fill="#000000" transform="translate(0,0)"/>
<path d="" fill="#000000" transform="translate(0,0)"/>
<path d="" fill="#000000" transform="translate(0,0)"/>
<path d="" fill="#000000" transform="translate(0,0)"/>
<path d="" fill="#000000" transform="translate(0,0)"/>
<path d="" fill="#000000" transform="translate(0,0)"/>
<path d="" fill="#000000" transform="translate(0,0)"/>
<path d="" fill="#000000" transform="translate(0,0)"/>
<path d="" fill="#000000" transform="translate(0,0)"/>
<path d="" fill="#000000" transform="translate(0,0)"/>
<path d="" fill="#000000" transform="translate(0,0)"/>
<path d="" fill="#000000" transform="translate(0,0)"/>
<path d="" fill="#000000" transform="translate(0,0)"/>
<path d="" fill="#000000" transform="translate(0,0)"/>
<path d="" fill="#000000" transform="translate(0,0)"/>
<path d="" fill="#000000" transform="translate(0,0)"/>
<path d="" fill="#000000" transform="translate(0,0)"/>
<path d="" fill="#000000" transform="translate(0,0)"/>
<path d="" fill="#000000" transform="translate(0,0)"/>
<path d="" fill="#000000" transform="translate(0,0)"/>
<path d="" fill="#000000" transform="translate(0,0)"/>
<path d="" fill="#000000" transform="translate(0,0)"/>
<path d="" fill="#000000" transform="translate(0,0)"/>
<path d="" fill="#000000" transform="translate(0,0)"/>
<path d="" fill="#000000" transform="translate(0,0)"/>
<path d="" fill="#000000" transform="translate(0,0)"/>
<path d="" fill="#000000" transform="translate(0,0)"/>
<path d="" fill="#000000" transform="translate(0,0)"/>
<path d="" fill="#000000" transform="translate(0,0)"/>
<path d="" fill="#000000" transform="translate(0,0)"/>
<path d="" fill="#000000" transform="translate(0,0)"/>
<path d="" fill="#000000" transform="translate(0,0)"/>
<path d="" fill="#000000" transform="translate(0,0)"/>
<path d="" fill="#000000" transform="translate(0,0)"/>
<path d="" fill="#000000" transform="translate(0,0)"/>
<path d="" fill="#000000" transform="translate(0,0)"/>
<path d="" fill="#000000" transform="translate(0,0)"/>
<path d="" fill="#000000" transform="translate(0,0)"/>
<path d="" fill="#000000" transform="translate(0,0)"/>
<path d="" fill="#000000" transform="translate(0,0)"/>
<path d="" fill="#000000" transform="translate(0,0)"/>
<path d="" fill="#000000" transform="translate(0,0)"/>
<path d="" fill="#000000" transform="translate(0,0)"/>
<path d="" fill="#000000" transform="translate(0,0)"/>
<path d="" fill="#000000" transform="translate(0,0)"/>
<path d="" fill="#000000" transform="translate(0,0)"/>
<path d="" fill="#000000" transform="translate(0,0)"/>
<path d="" fill="#000000" transform="translate(0,0)"/>
<path d="" fill="#000000" transform="translate(0,0)"/>
<path d="" fill="#000000" transform="translate(0,0)"/>
<path d="" fill="#000000" transform="translate(0,0)"/>
<path d="" fill="#000000" transform="translate(0,0)"/>
<path d="" fill="#000000" transform="translate(0,0)"/>
<path d="" fill="#000000" transform="translate(0,0)"/>
<path d="" fill="#000000" transform="translate(0,0)"/>
<path d="" fill="#000000" transform="translate(0,0)"/>
<path d="" fill="#000000" transform="translate(0,0)"/>
<path d="" fill="#000000" transform="translate(0,0)"/>
<path d="" fill="#000000" transform="translate(0,0)"/>
<path d="" fill="#000000" transform="translate(0,0)"/>
<path d="" fill="#000000" transform="translate(0,0)"/>
<path d="" fill="#000000" transform="translate(0,0)"/>
<path d="" fill="#000000" transform="translate(0,0)"/>
<path d="" fill="#000000" transform="translate(0,0)"/>
<path d="" fill="#000000" transform="translate(0,0)"/>
<path d="" fill="#000000" transform="translate(0,0)"/>
<path d="" fill="#000000" transform="translate(0,0)"/>
</svg>
