<?xml version="1.0" encoding="utf-8"?>
<!--Designed by Vexels.com - 2017 All Rights Reserved - https://vexels.com/terms-and-conditions/-->

<svg version="1.1" id="Layer_1" xmlns="http://www.w3.org/2000/svg" xmlns:xlink="http://www.w3.org/1999/xlink" x="0px" y="0px"
	 width="1200px" height="1200px" viewBox="0 0 1200 1200" enable-background="new 0 0 1200 1200" xml:space="preserve">
<g>
	<path fill="#2A2C2C" d="M919.349,1150h-638.69V507.479l-14.457,66.461L70.304,500.784v-7.119c0-2.253,0-8.246,110.073-312.584
		l1.352-3.725L422.773,50.015l4.271,10.508c1.938,4.744,48.745,116.356,173.441,122.391C724.6,176.86,772.471,61.7,772.941,60.538
		L777.192,50l241.079,127.356l1.352,3.725c110.073,304.338,110.073,310.331,110.073,312.584v7.119L933.799,573.94l-14.45-66.434
		V1150z M301.162,1129.493H898.85V316.685l49.941,229.759l158.118-59.034c-12.286-37.342-67.002-189.9-105.217-295.629
		L787.075,78.407c-15.884,30.544-71.783,119.43-186.59,124.986c-115.581-5.557-171.647-94.442-187.561-124.986L198.318,191.78
		c-38.229,105.729-92.941,258.287-105.231,295.629l158.111,59.034l49.964-229.729V1129.493z"/>
</g>
</svg>
