<?xml version="1.0" encoding="UTF-8"?>
<svg version="1.1" xmlns="http://www.w3.org/2000/svg" width="740" height="740">
<path d="M0 0 C244.2 0 488.4 0 740 0 C740 244.2 740 488.4 740 740 C495.8 740 251.6 740 0 740 C0 495.8 0 251.6 0 0 Z " fill="#FEFEFE" transform="translate(0,0)"/>
<path d="M0 0 C244.2 0 488.4 0 740 0 C740 244.2 740 488.4 740 740 C495.8 740 251.6 740 0 740 C0 495.8 0 251.6 0 0 Z M443.5 35.1875 C414.00148668 56.16820552 378.41712433 65.59198209 342.43945312 59.92285156 C332.46863544 58.0806596 323.8802062 54.83074414 315 50 C314.17628906 49.58878906 313.35257812 49.17757812 312.50390625 48.75390625 C304.5156858 44.63876238 297.32814281 38.9388444 290.5625 33.0625 C286.04546018 29.4268338 282.44282677 28.63228266 276.62084961 28.69360352 C271.53148814 29.28858709 267.06834937 31.53182313 262.4375 33.625 C261.31400146 34.11645508 260.19050293 34.60791016 259.03295898 35.11425781 C256.60806067 36.17696357 254.18650063 37.24502614 251.76855469 38.32324219 C247.99148064 40.00682075 244.20412409 41.66621509 240.4140625 43.3203125 C236.46525189 45.04439469 232.516768 46.76914384 228.57177734 48.50195312 C216.61613969 53.75115632 204.61813881 58.89946764 192.60961914 64.02636719 C191.2097637 64.62426825 189.80994167 65.22224753 188.41015625 65.8203125 C187.4119838 66.24669258 187.4119838 66.24669258 186.39364624 66.6816864 C182.26915906 68.44689996 178.16667828 70.25556233 174.07348633 72.09179688 C171.73733259 73.11505036 169.38172593 74.0814033 167.01953125 75.04296875 C148.12133339 82.77911518 133.43506276 93.00306782 118.47558594 106.91796875 C115.28722946 109.86992227 112.01635208 112.65992928 108.625 115.375 C102.89972931 119.98173011 97.57819937 124.96812867 92.22265625 129.9921875 C89.17862987 132.84546778 86.07033123 135.61188009 82.91015625 138.3359375 C80.63795489 140.31540126 78.41540128 142.3458317 76.1875 144.375 C72.78916448 147.44746773 69.32409477 150.38442622 65.75 153.25 C59.98558772 157.91058865 54.61148047 162.93779281 49.20703125 168.00390625 C44.49315585 172.42137991 39.61742267 176.63130988 34.6875 180.8046875 C21.4972643 190.49904714 21.4972643 190.49904714 14.64453125 204.17578125 C15.10792802 209.1611157 16.98162144 212.06646486 19.6875 216.1875 C20.1822583 216.96794678 20.6770166 217.74839355 21.18676758 218.55249023 C22.77444435 221.04620651 24.38490338 223.52397148 26 226 C27.02124312 227.58046445 28.04208039 229.16119123 29.0625 230.7421875 C31.19686313 234.03970782 33.34188747 237.33004081 35.4921875 240.6171875 C39.30249393 246.45043597 43.06027773 252.31677204 46.8125 258.1875 C47.48369873 259.23752197 48.15489746 260.28754395 48.84643555 261.36938477 C50.21503219 263.5109473 51.58343952 265.65263082 52.95166016 267.79443359 C56.29813376 273.03152519 59.64923132 278.26565584 63 283.5 C67.75427367 290.92738506 72.50659692 298.35601059 77.2565918 305.78613281 C79.26542472 308.92641028 81.27698071 312.06492849 83.2890625 315.203125 C85.62846848 318.85235777 87.95685784 322.50811518 90.2734375 326.171875 C91.24471482 327.69796558 92.21606357 329.2240107 93.1875 330.75 C93.60878174 331.42289062 94.03006348 332.09578125 94.46411133 332.7890625 C98.64397209 339.3888218 98.64397209 339.3888218 104.875 343.8125 C105.57625 343.874375 106.2775 343.93625 107 344 C108.010625 344.185625 109.02125 344.37125 110.0625 344.5625 C116.27422763 343.67511034 120.25005728 339.88754947 125 336 C125.6379248 335.48002441 126.27584961 334.96004883 126.93310547 334.42431641 C130.52760407 331.4866114 134.10532707 328.52935647 137.67578125 325.5625 C142.85049243 321.27677468 148.13590632 317.13851401 153.4375 313.01171875 C155.80145757 311.23839123 155.80145757 311.23839123 157 310 C163.72 310.72 163.72 310.72 165 312 C165.13760323 313.64943734 165.20682417 315.30461196 165.24951172 316.95922852 C165.27991043 318.03978516 165.31030914 319.1203418 165.34162903 320.23364258 C165.38521797 322.0380481 165.38521797 322.0380481 165.4296875 323.87890625 C165.48322998 325.83161573 165.53677929 327.78432503 165.59055424 329.73702812 C165.64831878 331.86347304 165.70383463 333.98996708 165.75881958 336.1164856 C165.93649486 342.96392642 166.13102509 349.81089656 166.32538795 356.65788078 C166.37184445 358.29451031 166.4181565 359.93114394 166.46433067 361.56778145 C167.03042659 381.60173055 167.68614848 401.63259509 168.36358643 421.66305542 C168.4962385 425.58644328 168.62717405 429.50988225 168.75653076 433.43338013 C168.91054315 438.10266119 169.06771463 442.77182534 169.22733498 447.44091797 C169.28579216 449.1640172 169.34323819 450.8871511 169.39957237 452.61032104 C169.4776724 454.99105863 169.55977376 457.37162783 169.64282227 459.75219727 C169.66414152 460.42882699 169.68546078 461.10545671 169.70742607 461.80259037 C169.84378794 465.58005377 170.11522085 469.31849476 170.48753357 473.08032227 C171.14259398 480.03025398 171.34357463 486.98781562 171.55664062 493.96264648 C171.60415431 495.43966534 171.65194793 496.91667522 171.69999695 498.39367676 C171.82901344 502.38543117 171.95398878 506.37730259 172.07810783 510.36921191 C172.2103148 514.60208936 172.34594368 518.83485743 172.4810791 523.06764221 C172.70854099 530.20851815 172.93344632 537.34947104 173.15673828 544.49047852 C173.38311462 551.7294906 173.61185191 558.96842245 173.84326172 566.20727539 C176.92497685 662.62141086 176.92497685 662.62141086 177.28100586 697.95185852 C177.36484861 702.47206354 177.69489442 706.62140415 181.04403687 710.02886963 C188.98515603 713.97161367 202.3047868 710.60197476 210.8515625 709.6328125 C225.63914767 708.06001991 240.43297604 706.99994493 255.27636719 706.11962891 C258.68657896 705.91736177 262.09612 705.70555849 265.50559044 705.49120331 C301.34284701 703.24537453 337.10797671 702.78628918 373.00830078 702.75976562 C378.04678714 702.75541223 383.08509926 702.74161236 388.12353516 702.71875 C421.67438439 702.5697798 454.99399572 703.44898652 488.47479248 705.64190674 C494.38454103 706.02869182 500.29611964 706.36830656 506.2093811 706.69613647 C510.22020183 706.91890819 514.22997962 707.15729516 518.23974609 707.39819336 C520.15138487 707.51198541 522.06318203 707.6231361 523.97509766 707.73217773 C534.07651397 708.30919106 544.01749224 709.01460779 554.01855469 710.57885742 C558.39543478 711.19711145 562.70983774 711.36761679 567.125 711.375 C567.93453125 711.39949219 568.7440625 711.42398438 569.578125 711.44921875 C574.39428058 711.48342067 574.39428058 711.48342067 578.4921875 709.1015625 C581.1444088 705.40494318 581.12782642 703.14934988 581.13587189 698.60345364 C581.13841451 697.93622631 581.14095713 697.26899899 581.1435768 696.58155265 C581.1509532 694.3238396 581.15117316 692.06618073 581.15148926 689.80845642 C581.15533648 688.18227059 581.15962344 686.55608575 581.16431475 684.92990214 C581.17599027 680.44413203 581.18144724 675.95837211 581.18594956 671.47258985 C581.19188476 666.64160556 581.20355568 661.8106349 581.21458435 656.97966003 C581.23295746 648.60374751 581.24779333 640.2278347 581.26036072 631.85191154 C581.27862483 619.74051896 581.30328972 607.62914587 581.32973462 595.51776869 C581.37255686 575.868216 581.41166589 556.21865796 581.44775391 536.5690918 C581.44991671 535.39218289 581.45207951 534.21527398 581.45430785 533.00270117 C581.47183157 523.45189618 581.48917618 513.90109087 581.50651073 504.35028553 C581.52167277 496.00036924 581.53690542 487.65045308 581.55224609 479.30053711 C581.55440496 478.1247517 581.55656383 476.94896629 581.55878812 475.73755103 C581.59485125 456.16227031 581.63480043 436.58699939 581.67754889 417.01173216 C581.70375503 404.92436064 581.72640175 392.83699216 581.74453247 380.74960578 C581.75716574 372.47425507 581.773279 364.19891599 581.79218161 355.92357724 C581.80297604 351.14178484 581.81208124 346.36000379 581.81687737 341.57820129 C581.8212856 337.20812992 581.83019816 332.8380927 581.84282058 328.46803755 C581.84658036 326.8799371 581.84861877 325.29183153 581.84884077 323.70372664 C581.84937589 321.55934547 581.85593869 319.41506871 581.86412811 317.27070522 C581.86624408 316.07529061 581.86836005 314.87987599 581.87054014 313.64823669 C582 311 582 311 583 310 C588.29208924 309.37831551 591.27917356 311.00430412 595.4375 314 C596.05713623 314.42917725 596.67677246 314.85835449 597.31518555 315.30053711 C598.72910199 316.28253183 600.1383809 317.27122424 601.54394531 318.26513672 C605.40372025 320.9915344 609.28891964 323.68125 613.17016602 326.37695312 C615.25103648 327.82423402 617.32968552 329.2747145 619.40600586 330.72851562 C620.36128174 331.39689453 621.31655762 332.06527344 622.30078125 332.75390625 C623.15841064 333.35533447 624.01604004 333.9567627 624.8996582 334.57641602 C627.87060106 336.59008192 629.68951514 337.19745032 633.25 337.3125 C633.99765625 337.34988281 634.7453125 337.38726562 635.515625 337.42578125 C639.66225445 336.71511677 642.66617541 334.6807102 645.28515625 331.38061523 C646.55216129 329.4762636 647.72363211 327.53885087 648.875 325.5625 C649.30570801 324.84876221 649.73641602 324.13502441 650.18017578 323.3996582 C651.05499069 321.94891539 651.92469125 320.49507536 652.7890625 319.03808594 C654.45408148 316.23575158 656.16346383 313.46161488 657.875 310.6875 C658.51824219 309.63949219 659.16148437 308.59148437 659.82421875 307.51171875 C662.41130513 303.31969187 665.05145807 299.16134431 667.6875 295 C671.99992358 288.19195459 676.26705651 281.35773538 680.5 274.5 C685.11427188 267.02503037 689.77799238 259.58380095 694.48046875 252.1640625 C698.74171267 245.43107341 702.9363369 238.65802328 707.11816406 231.87548828 C709.87023131 227.41813707 712.64181416 222.97495759 715.453125 218.5546875 C716.00677734 217.68392578 716.56042969 216.81316406 717.13085938 215.91601562 C718.18656902 214.25922642 719.24503365 212.6041885 720.30664062 210.95117188 C720.77779297 210.21189453 721.24894531 209.47261719 721.734375 208.7109375 C722.14913086 208.06431152 722.56388672 207.41768555 722.99121094 206.75146484 C725.24795944 202.83328629 725.37577247 199.43411509 725 195 C722.35332615 190.32420953 719.07312226 187.02908278 714.9375 183.6875 C714.36531738 183.2145752 713.79313477 182.74165039 713.20361328 182.25439453 C711.47517121 180.82863336 709.73829554 179.41371963 708 178 C707.03964844 177.20980469 706.07929687 176.41960937 705.08984375 175.60546875 C702.39983839 173.39540679 699.70151701 171.19596996 697 169 C691.09692638 164.20159513 685.23262423 159.36547061 679.4375 154.4375 C674.96273766 150.63440716 670.4333113 146.91933498 665.83203125 143.26953125 C659.91430621 138.52718884 654.08591133 133.67438043 648.23779297 128.84667969 C644.66088207 125.89492821 641.08032894 122.94760376 637.5 120 C632.4391785 115.83271242 627.37902799 111.66461275 622.31982422 107.49536133 C620.16728007 105.72232579 618.01337187 103.95095768 615.859375 102.1796875 C613.57100287 100.2971734 611.29010683 98.40718345 609.015625 96.5078125 C606.36767317 94.30640876 603.69557086 92.14282739 601 90 C600.45730469 89.5659082 599.91460938 89.13181641 599.35546875 88.68457031 C589.82965954 81.13890437 580.19386553 75.678557 569 71 C567.42605469 70.34185303 567.42605469 70.34185303 565.8203125 69.67041016 C555.71927134 65.47166388 545.5904143 61.35261195 535.359375 57.48046875 C530.4835905 55.61562978 525.74960267 53.55650554 521.01513672 51.36181641 C514.60470246 48.46648019 508.07185215 45.85099521 501.5625 43.1875 C500.81454163 42.88140808 500.06658325 42.57531616 499.29595947 42.25994873 C496.28011113 41.02618893 493.26421855 39.79254407 490.24737549 38.56121826 C486.02482669 36.83606808 481.81431065 35.08571492 477.61328125 33.30859375 C475.86721451 32.58066438 474.12112342 31.8527934 472.375 31.125 C471.62033447 30.79781982 470.86566895 30.47063965 470.08813477 30.13354492 C459.45369588 25.75551987 452.38820619 28.79631495 443.5 35.1875 Z " fill="#FDFDFD" transform="translate(0,0)"/>
<path d="M0 0 C1.84850226 0.77447463 3.6979678 1.54665374 5.54833984 2.31665039 C9.36045876 3.90615297 13.16737451 5.50725754 16.97070312 7.11767578 C22.36567442 9.39770167 27.77979066 11.62825118 33.203125 13.83984375 C34.04706818 14.18405869 34.89101135 14.52827362 35.76052856 14.88291931 C37.43415754 15.56534043 39.10783247 16.24764888 40.78155518 16.92984009 C55.03354155 22.74773612 69.26437338 28.62149633 83.45483398 34.58789062 C85.39604205 35.40377018 87.34039621 36.21215488 89.28515625 37.01953125 C101.85983016 42.59356799 112.42156883 50.09423433 122.84863281 58.99121094 C125.30379668 61.07654803 127.80787051 63.09951702 130.3125 65.125 C133.6738841 67.87431118 136.99819656 70.66166804 140.30175781 73.47973633 C145.30535116 77.74772678 150.36641862 81.9055205 155.5625 85.9375 C160.97928346 90.14145866 166.20062924 94.52610388 171.37695312 99.02148438 C175.34795373 102.45239348 179.41097114 105.72822825 183.5625 108.9375 C189.22685916 113.31912312 194.63716288 117.93700394 200.01708984 122.66162109 C204.68998818 126.74390188 209.50073321 130.59827199 214.40820312 134.39306641 C220.46919163 139.10391984 226.27042777 144.10638444 232.05078125 149.15527344 C233.11465606 150.06405483 234.19620558 150.95248311 235.29296875 151.82128906 C239.18655967 154.91117871 241.20381483 157.00123797 242.03125 161.91015625 C242.31730881 170.00323661 239.93518246 174.79167092 235.625 181.5 C234.76442352 182.86903715 233.90514534 184.23889092 233.046875 185.609375 C231.03021825 188.81894955 228.99828845 192.01837437 226.9609375 195.21484375 C223.4792437 200.70061943 220.11130794 206.25242057 216.75 211.8125 C211.54644622 220.40730319 206.21817004 228.91196938 200.80297852 237.37475586 C196.88014972 243.51071527 193.0120713 249.67734427 189.1875 255.875 C182.57568787 266.58511845 175.94503117 277.28264815 169.23583984 287.93212891 C167.85847449 290.12781378 166.49836598 292.33275484 165.14453125 294.54296875 C159.03021025 304.25255781 159.03021025 304.25255781 152.625 306.5 C145.93638242 307.37640119 141.65538367 306.08763764 136.1875 302.3125 C135.5186377 301.87341309 134.84977539 301.43432617 134.16064453 300.98193359 C127.15813227 296.32704707 120.35766194 291.36511356 113.5859375 286.3828125 C112.90756836 285.88942383 112.22919922 285.39603516 111.53027344 284.88769531 C109.81784022 283.6404541 108.1152971 282.37966087 106.4140625 281.1171875 C103.38925982 279.36331031 102.02235012 279.35235115 98.625 279.5 C98.62402319 280.33179344 98.62304638 281.16358689 98.62203997 282.02058619 C98.56380363 331.28858635 98.49003397 380.5565423 98.39601372 429.82448785 C98.38474517 435.73642593 98.37360678 441.64836425 98.36254883 447.56030273 C98.36034514 448.7372934 98.35814146 449.91428407 98.355871 451.12694112 C98.3204714 470.19980945 98.2956223 489.27267774 98.27465298 508.34556677 C98.25291213 527.90726194 98.21987808 547.46891436 98.17629844 567.03057319 C98.14975214 579.10706443 98.13207872 591.18350238 98.12565396 603.26002137 C98.12040918 611.53451221 98.10422293 619.80893594 98.07933434 628.08339085 C98.06528809 632.86164677 98.05616016 637.63978244 98.05999184 642.4180603 C98.06339127 646.78974095 98.05309983 651.16116438 98.03176448 655.53279231 C98.02647739 657.11698041 98.0262817 658.70119509 98.03160437 660.28538307 C98.0380911 662.43440339 98.02625426 664.58256795 98.00976086 666.73151684 C98.00786225 667.92649672 98.00596365 669.1214766 98.00400752 670.35266799 C97.58247552 673.85312933 96.73842765 675.70238239 94.625 678.5 C86.79320171 683.72119886 72.81818109 680.17038717 63.8125 679.1875 C61.06709075 678.90447559 58.32080855 678.63068396 55.57421875 678.359375 C54.85527435 678.28831039 54.13632996 678.21724579 53.39559937 678.14402771 C1.61760552 673.09558249 -50.24798445 672.15818048 -102.22939253 672.24286181 C-107.39725824 672.25040522 -112.56504725 672.24767662 -117.73291016 672.23925781 C-173.38988067 672.15097686 -229.00692788 673.26418214 -284.36181641 679.58569336 C-301.64031405 681.52916541 -301.64031405 681.52916541 -305.875 678.1875 C-310.96971113 672.71068553 -309.94177743 664.79527786 -310.30859375 657.671875 C-310.37185758 656.46911549 -310.37185758 656.46911549 -310.43639946 655.2420578 C-311.95526848 625.88447714 -312.5616563 596.47877152 -313.37271881 567.0949707 C-313.67302211 556.22449364 -313.97604512 545.35409712 -314.28612036 534.48389411 C-314.40961673 530.1463987 -314.52956393 525.80882516 -314.64656651 521.47114992 C-314.70207782 519.43263117 -314.75922946 517.39416613 -314.8170929 515.35571289 C-314.8871083 512.8881578 -314.9546056 510.42052927 -315.01895142 507.95281982 C-315.187668 502.16205839 -315.52262702 496.44877496 -316.15226269 490.69004822 C-316.45723191 487.69146081 -316.55685643 484.70539888 -316.62451172 481.69287109 C-316.65491547 480.43268661 -316.68531921 479.17250214 -316.71664429 477.87413025 C-316.73089825 477.20974379 -316.74515221 476.54535732 -316.7598381 475.86083794 C-316.80638553 473.69440696 -316.85770155 471.52812953 -316.9100647 469.36183167 C-316.98620753 466.19656948 -317.06055848 463.0312728 -317.13354492 459.86593628 C-317.33367292 451.2319129 -317.55204558 442.5983448 -317.7734375 433.96484375 C-317.79659279 433.06078608 -317.81974808 432.1567284 -317.84360504 431.22527504 C-318.40894242 409.29236088 -319.12270695 387.36470863 -319.875 365.4375 C-319.90707424 364.50108421 -319.93914848 363.56466843 -319.97219467 362.5998764 C-320.923059 334.89163374 -321.95015104 307.18862678 -323.375 279.5 C-327.03315249 280.03246616 -329.18803173 280.79044065 -331.984375 283.203125 C-332.98065918 284.04641357 -332.98065918 284.04641357 -333.99707031 284.90673828 C-335.05039551 285.81915283 -335.05039551 285.81915283 -336.125 286.75 C-337.63323485 288.02602085 -339.14371823 289.29938795 -340.65625 290.5703125 C-341.81833984 291.54726074 -341.81833984 291.54726074 -343.00390625 292.54394531 C-348.73962827 297.27567975 -354.71839448 301.70234993 -360.65161133 306.18164062 C-362.19164616 307.35973782 -363.70522654 308.57223212 -365.21484375 309.7890625 C-369.33924205 313.05576495 -373.09783684 313.9716816 -378.390625 313.8125 C-384.31330849 312.87979394 -387.97759266 308.02275283 -391.375 303.5 C-393.93594718 299.71807976 -396.37497332 295.86228856 -398.8125 292 C-399.88243631 290.31660245 -400.95237376 288.63320563 -402.02241516 286.94987488 C-403.10960775 285.23791474 -404.19481663 283.52471459 -405.27929688 281.81103516 C-408.36720778 276.93239493 -411.46438274 272.05966291 -414.5625 267.1875 C-415.13411865 266.28773438 -415.7057373 265.38796875 -416.29467773 264.4609375 C-420.11841725 258.44995157 -423.98356143 252.46734374 -427.875 246.5 C-432.9435731 238.72757409 -437.94792881 230.9164905 -442.92041016 223.08227539 C-446.81417542 216.94832809 -450.72557238 210.82606139 -454.65112305 204.71240234 C-456.69955417 201.51621122 -458.73669849 198.3130246 -460.7734375 195.109375 C-462.85040582 191.84973361 -464.95472203 188.62441133 -467.1640625 185.453125 C-471.31623881 179.32022855 -473.55758402 174.67942111 -472.9453125 167.14453125 C-471.29348228 159.48501716 -465.43733881 155.74095632 -459.53515625 151.0859375 C-455.97926333 148.23628286 -452.68569214 145.12771857 -449.375 142 C-445.33793692 138.19672472 -441.27651839 134.52468852 -436.9375 131.0625 C-432.37231497 127.41169665 -428.11800752 123.51359835 -423.875 119.5 C-418.8123349 114.71106097 -413.64383172 110.19833951 -408.1953125 105.84765625 C-403.48092358 101.9233519 -399.05594284 97.68973138 -394.58203125 93.49609375 C-389.9110668 89.11883286 -385.07752459 84.9485711 -380.203125 80.80078125 C-379.01026416 79.78403306 -377.81756108 78.76709977 -376.625 77.75 C-375.71621094 76.97668335 -375.71621094 76.97668335 -374.7890625 76.18774414 C-371.39186652 73.28160561 -368.07673909 70.31534028 -364.828125 67.24438477 C-348.92057457 52.2535497 -330.98407473 43.84570519 -310.95019531 35.53149414 C-304.46507764 32.83898558 -298.07304228 30.00095531 -291.70825195 27.03564453 C-285.86816029 24.3450874 -279.96499655 21.79991759 -274.0625 19.25 C-273.41902618 18.97131073 -272.77555237 18.69262146 -272.11257935 18.40548706 C-262.22437291 14.12373681 -252.29553172 9.9484149 -242.33691406 5.83276367 C-237.11529088 3.66727296 -231.94107289 1.44029288 -226.8125 -0.9375 C-225.33716797 -1.62005859 -225.33716797 -1.62005859 -223.83203125 -2.31640625 C-221.85439247 -3.26906849 -219.91889379 -4.30894789 -218 -5.375 C-211.29124794 -7.4570265 -203.37385438 -8.12695566 -196.75390625 -5.43359375 C-194.45713668 -3.93107248 -192.43495625 -2.31307011 -190.375 -0.5 C-166.54360264 19.40044522 -139.45476025 27.47456585 -108.625 25.2265625 C-82.24026888 21.92847111 -58.55346852 11.07264869 -37.546875 -4.96875 C-26.14617552 -13.00665323 -10.98267296 -4.72070618 0 0 Z M-41.875 1.6875 C-71.37351332 22.66820552 -106.95787567 32.09198209 -142.93554688 26.42285156 C-152.90636456 24.5806596 -161.4947938 21.33074414 -170.375 16.5 C-171.19871094 16.08878906 -172.02242188 15.67757812 -172.87109375 15.25390625 C-180.8593142 11.13876238 -188.04685719 5.4388444 -194.8125 -0.4375 C-199.32953982 -4.0731662 -202.93217323 -4.86771734 -208.75415039 -4.80639648 C-213.84351186 -4.21141291 -218.30665063 -1.96817687 -222.9375 0.125 C-224.06099854 0.61645508 -225.18449707 1.10791016 -226.34204102 1.61425781 C-228.76693933 2.67696357 -231.18849937 3.74502614 -233.60644531 4.82324219 C-237.38351936 6.50682075 -241.17087591 8.16621509 -244.9609375 9.8203125 C-248.90974811 11.54439469 -252.858232 13.26914384 -256.80322266 15.00195312 C-268.75886031 20.25115632 -280.75686119 25.39946764 -292.76538086 30.52636719 C-294.1652363 31.12426825 -295.56505833 31.72224753 -296.96484375 32.3203125 C-297.9630162 32.74669258 -297.9630162 32.74669258 -298.98135376 33.1816864 C-303.10584094 34.94689996 -307.20832172 36.75556233 -311.30151367 38.59179688 C-313.63766741 39.61505036 -315.99327407 40.5814033 -318.35546875 41.54296875 C-337.25366661 49.27911518 -351.93993724 59.50306782 -366.89941406 73.41796875 C-370.08777054 76.36992227 -373.35864792 79.15992928 -376.75 81.875 C-382.47527069 86.48173011 -387.79680063 91.46812867 -393.15234375 96.4921875 C-396.19637013 99.34546778 -399.30466877 102.11188009 -402.46484375 104.8359375 C-404.73704511 106.81540126 -406.95959872 108.8458317 -409.1875 110.875 C-412.58583552 113.94746773 -416.05090523 116.88442622 -419.625 119.75 C-425.38941228 124.41058865 -430.76351953 129.43779281 -436.16796875 134.50390625 C-440.88184415 138.92137991 -445.75757733 143.13130988 -450.6875 147.3046875 C-463.8777357 156.99904714 -463.8777357 156.99904714 -470.73046875 170.67578125 C-470.26707198 175.6611157 -468.39337856 178.56646486 -465.6875 182.6875 C-465.1927417 183.46794678 -464.6979834 184.24839355 -464.18823242 185.05249023 C-462.60055565 187.54620651 -460.99009662 190.02397148 -459.375 192.5 C-458.35375688 194.08046445 -457.33291961 195.66119123 -456.3125 197.2421875 C-454.17813687 200.53970782 -452.03311253 203.83004081 -449.8828125 207.1171875 C-446.07250607 212.95043597 -442.31472227 218.81677204 -438.5625 224.6875 C-437.89130127 225.73752197 -437.22010254 226.78754395 -436.52856445 227.86938477 C-435.15996781 230.0109473 -433.79156048 232.15263082 -432.42333984 234.29443359 C-429.07686624 239.53152519 -425.72576868 244.76565584 -422.375 250 C-417.62072633 257.42738506 -412.86840308 264.85601059 -408.1184082 272.28613281 C-406.10957528 275.42641028 -404.09801929 278.56492849 -402.0859375 281.703125 C-399.74653152 285.35235777 -397.41814216 289.00811518 -395.1015625 292.671875 C-394.13028518 294.19796558 -393.15893643 295.7240107 -392.1875 297.25 C-391.76621826 297.92289062 -391.34493652 298.59578125 -390.91088867 299.2890625 C-386.73102791 305.8888218 -386.73102791 305.8888218 -380.5 310.3125 C-379.79875 310.374375 -379.0975 310.43625 -378.375 310.5 C-377.364375 310.685625 -376.35375 310.87125 -375.3125 311.0625 C-369.10077237 310.17511034 -365.12494272 306.38754947 -360.375 302.5 C-359.7370752 301.98002441 -359.09915039 301.46004883 -358.44189453 300.92431641 C-354.84739593 297.9866114 -351.26967293 295.02935647 -347.69921875 292.0625 C-342.52450757 287.77677468 -337.23909368 283.63851401 -331.9375 279.51171875 C-329.57354243 277.73839123 -329.57354243 277.73839123 -328.375 276.5 C-321.655 277.22 -321.655 277.22 -320.375 278.5 C-320.23739677 280.14943734 -320.16817583 281.80461196 -320.12548828 283.45922852 C-320.09508957 284.53978516 -320.06469086 285.6203418 -320.03337097 286.73364258 C-319.98978203 288.5380481 -319.98978203 288.5380481 -319.9453125 290.37890625 C-319.89177002 292.33161573 -319.83822071 294.28432503 -319.78444576 296.23702812 C-319.72668122 298.36347304 -319.67116537 300.48996708 -319.61618042 302.6164856 C-319.43850514 309.46392642 -319.24397491 316.31089656 -319.04961205 323.15788078 C-319.00315555 324.79451031 -318.9568435 326.43114394 -318.91066933 328.06778145 C-318.34457341 348.10173055 -317.68885152 368.13259509 -317.01141357 388.16305542 C-316.8787615 392.08644328 -316.74782595 396.00988225 -316.61846924 399.93338013 C-316.46445685 404.60266119 -316.30728537 409.27182534 -316.14766502 413.94091797 C-316.08920784 415.6640172 -316.03176181 417.3871511 -315.97542763 419.11032104 C-315.8973276 421.49105863 -315.81522624 423.87162783 -315.73217773 426.25219727 C-315.71085848 426.92882699 -315.68953922 427.60545671 -315.66757393 428.30259037 C-315.53121206 432.08005377 -315.25977915 435.81849476 -314.88746643 439.58032227 C-314.23240602 446.53025398 -314.03142537 453.48781562 -313.81835938 460.46264648 C-313.77084569 461.93966534 -313.72305207 463.41667522 -313.67500305 464.89367676 C-313.54598656 468.88543117 -313.42101122 472.87730259 -313.29689217 476.86921191 C-313.1646852 481.10208936 -313.02905632 485.33485743 -312.8939209 489.56764221 C-312.66645901 496.70851815 -312.44155368 503.84947104 -312.21826172 510.99047852 C-311.99188538 518.2294906 -311.76314809 525.46842245 -311.53173828 532.70727539 C-308.45002315 629.12141086 -308.45002315 629.12141086 -308.09399414 664.45185852 C-308.01015139 668.97206354 -307.68010558 673.12140415 -304.33096313 676.52886963 C-296.38984397 680.47161367 -283.0702132 677.10197476 -274.5234375 676.1328125 C-259.73585233 674.56001991 -244.94202396 673.49994493 -230.09863281 672.61962891 C-226.68842104 672.41736177 -223.27888 672.20555849 -219.86940956 671.99120331 C-184.03215299 669.74537453 -148.26702329 669.28628918 -112.36669922 669.25976562 C-107.32821286 669.25541223 -102.28990074 669.24161236 -97.25146484 669.21875 C-63.70061561 669.0697798 -30.38100428 669.94898652 3.09979248 672.14190674 C9.00954103 672.52869182 14.92111964 672.86830656 20.8343811 673.19613647 C24.84520183 673.41890819 28.85497962 673.65729516 32.86474609 673.89819336 C34.77638487 674.01198541 36.68818203 674.1231361 38.60009766 674.23217773 C48.70151397 674.80919106 58.64249224 675.51460779 68.64355469 677.07885742 C73.02043478 677.69711145 77.33483774 677.86761679 81.75 677.875 C82.55953125 677.89949219 83.3690625 677.92398438 84.203125 677.94921875 C89.01928058 677.98342067 89.01928058 677.98342067 93.1171875 675.6015625 C95.7694088 671.90494318 95.75282642 669.64934988 95.76087189 665.10345364 C95.76341451 664.43622631 95.76595713 663.76899899 95.7685768 663.08155265 C95.7759532 660.8238396 95.77617316 658.56618073 95.77648926 656.30845642 C95.78033648 654.68227059 95.78462344 653.05608575 95.78931475 651.42990214 C95.80099027 646.94413203 95.80644724 642.45837211 95.81094956 637.97258985 C95.81688476 633.14160556 95.82855568 628.3106349 95.83958435 623.47966003 C95.85795746 615.10374751 95.87279333 606.7278347 95.88536072 598.35191154 C95.90362483 586.24051896 95.92828972 574.12914587 95.95473462 562.01776869 C95.99755686 542.368216 96.03666589 522.71865796 96.07275391 503.0690918 C96.07491671 501.89218289 96.07707951 500.71527398 96.07930785 499.50270117 C96.09683157 489.95189618 96.11417618 480.40109087 96.13151073 470.85028553 C96.14667277 462.50036924 96.16190542 454.15045308 96.17724609 445.80053711 C96.17940496 444.6247517 96.18156383 443.44896629 96.18378812 442.23755103 C96.21985125 422.66227031 96.25980043 403.08699939 96.30254889 383.51173216 C96.32875503 371.42436064 96.35140175 359.33699216 96.36953247 347.24960578 C96.38216574 338.97425507 96.398279 330.69891599 96.41718161 322.42357724 C96.42797604 317.64178484 96.43708124 312.86000379 96.44187737 308.07820129 C96.4462856 303.70812992 96.45519816 299.3380927 96.46782058 294.96803755 C96.47158036 293.3799371 96.47361877 291.79183153 96.47384077 290.20372664 C96.47437589 288.05934547 96.48093869 285.91506871 96.48912811 283.77070522 C96.49124408 282.57529061 96.49336005 281.37987599 96.49554014 280.14823669 C96.625 277.5 96.625 277.5 97.625 276.5 C102.91708924 275.87831551 105.90417356 277.50430412 110.0625 280.5 C110.68213623 280.92917725 111.30177246 281.35835449 111.94018555 281.80053711 C113.35410199 282.78253183 114.7633809 283.77122424 116.16894531 284.76513672 C120.02872025 287.4915344 123.91391964 290.18125 127.79516602 292.87695312 C129.87603648 294.32423402 131.95468552 295.7747145 134.03100586 297.22851562 C134.98628174 297.89689453 135.94155762 298.56527344 136.92578125 299.25390625 C137.78341064 299.85533447 138.64104004 300.4567627 139.5246582 301.07641602 C142.49560106 303.09008192 144.31451514 303.69745032 147.875 303.8125 C148.62265625 303.84988281 149.3703125 303.88726562 150.140625 303.92578125 C154.28725445 303.21511677 157.29117541 301.1807102 159.91015625 297.88061523 C161.17716129 295.9762636 162.34863211 294.03885087 163.5 292.0625 C163.93070801 291.34876221 164.36141602 290.63502441 164.80517578 289.8996582 C165.67999069 288.44891539 166.54969125 286.99507536 167.4140625 285.53808594 C169.07908148 282.73575158 170.78846383 279.96161488 172.5 277.1875 C173.14324219 276.13949219 173.78648437 275.09148437 174.44921875 274.01171875 C177.03630513 269.81969187 179.67645807 265.66134431 182.3125 261.5 C186.62492358 254.69195459 190.89205651 247.85773538 195.125 241 C199.73927188 233.52503037 204.40299238 226.08380095 209.10546875 218.6640625 C213.36671267 211.93107341 217.5613369 205.15802328 221.74316406 198.37548828 C224.49523131 193.91813707 227.26681416 189.47495759 230.078125 185.0546875 C230.63177734 184.18392578 231.18542969 183.31316406 231.75585938 182.41601562 C232.81156902 180.75922642 233.87003365 179.1041885 234.93164062 177.45117188 C235.40279297 176.71189453 235.87394531 175.97261719 236.359375 175.2109375 C236.77413086 174.56431152 237.18888672 173.91768555 237.61621094 173.25146484 C239.87295944 169.33328629 240.00077247 165.93411509 239.625 161.5 C236.97832615 156.82420953 233.69812226 153.52908278 229.5625 150.1875 C228.99031738 149.7145752 228.41813477 149.24165039 227.82861328 148.75439453 C226.10017121 147.32863336 224.36329554 145.91371963 222.625 144.5 C221.66464844 143.70980469 220.70429687 142.91960937 219.71484375 142.10546875 C217.02483839 139.89540679 214.32651701 137.69596996 211.625 135.5 C205.72192638 130.70159513 199.85762423 125.86547061 194.0625 120.9375 C189.58773766 117.13440716 185.0583113 113.41933498 180.45703125 109.76953125 C174.53930621 105.02718884 168.71091133 100.17438043 162.86279297 95.34667969 C159.28588207 92.39492821 155.70532894 89.44760376 152.125 86.5 C147.0641785 82.33271242 142.00402799 78.16461275 136.94482422 73.99536133 C134.79228007 72.22232579 132.63837187 70.45095768 130.484375 68.6796875 C128.19600287 66.7971734 125.91510683 64.90718345 123.640625 63.0078125 C120.99267317 60.80640876 118.32057086 58.64282739 115.625 56.5 C115.08230469 56.0659082 114.53960938 55.63181641 113.98046875 55.18457031 C104.45465954 47.63890437 94.81886553 42.178557 83.625 37.5 C82.05105469 36.84185303 82.05105469 36.84185303 80.4453125 36.17041016 C70.34427134 31.97166388 60.2154143 27.85261195 49.984375 23.98046875 C45.1085905 22.11562978 40.37460267 20.05650554 35.64013672 17.86181641 C29.22970246 14.96648019 22.69685215 12.35099521 16.1875 9.6875 C15.43954163 9.38140808 14.69158325 9.07531616 13.92095947 8.75994873 C10.90511113 7.52618893 7.88921855 6.29254407 4.87237549 5.06121826 C0.64982669 3.33606808 -3.56068935 1.58571492 -7.76171875 -0.19140625 C-9.50778549 -0.91933562 -11.25387658 -1.6472066 -13 -2.375 C-13.75466553 -2.70218018 -14.50933105 -3.02936035 -15.28686523 -3.36645508 C-25.92130412 -7.74448013 -32.98679381 -4.70368505 -41.875 1.6875 Z " fill="#181818" transform="translate(485.375,33.5)"/>
<path d="M0 0 C0.66 0.33 1.32 0.66 2 1 C1.67 1.845625 1.34 2.69125 1 3.5625 C-0.25142628 7.86427784 -1.00006646 11.66306173 0.82568359 15.92944336 C2.03698337 18.07330182 3.3359716 20.1291312 4.6875 22.1875 C5.1822583 22.96794678 5.6770166 23.74839355 6.18676758 24.55249023 C7.77444435 27.04620651 9.38490338 29.52397148 11 32 C12.02124312 33.58046445 13.04208039 35.16119123 14.0625 36.7421875 C16.19686313 40.03970782 18.34188747 43.33004081 20.4921875 46.6171875 C24.30249393 52.45043597 28.06027773 58.31677204 31.8125 64.1875 C32.48369873 65.23752197 33.15489746 66.28754395 33.84643555 67.36938477 C35.21503219 69.5109473 36.58343952 71.65263082 37.95166016 73.79443359 C41.29813376 79.03152519 44.64923132 84.26565584 48 89.5 C52.06004492 95.84282312 56.11932806 102.18612909 60.17578125 108.53125 C63.50820572 113.74373421 66.84540167 118.95314237 70.18408203 124.16162109 C71.89765541 126.84002982 73.60399867 129.52290296 75.30859375 132.20703125 C76.28890857 133.7422858 77.26936654 135.27744896 78.25 136.8125 C78.67966064 137.49376953 79.10932129 138.17503906 79.55200195 138.87695312 C83.2303651 144.83145989 83.2303651 144.83145989 88.8125 148.75 C89.534375 148.8325 90.25625 148.915 91 149 C92.010625 149.185625 93.02125 149.37125 94.0625 149.5625 C100.27422763 148.67511034 104.25005728 144.88754947 109 141 C109.6379248 140.48002441 110.27584961 139.96004883 110.93310547 139.42431641 C114.52760407 136.4866114 118.10532707 133.52935647 121.67578125 130.5625 C126.85049243 126.27677468 132.13590632 122.13851401 137.4375 118.01171875 C139.80145757 116.23839123 139.80145757 116.23839123 141 115 C147.6 115.6 147.6 115.6 150 118 C150.29624939 120.22988892 150.29624939 120.22988892 150.36303711 123.07275391 C150.40852188 124.69347557 150.40852188 124.69347557 150.45492554 126.34693909 C150.49077255 128.14360268 150.49077255 128.14360268 150.52734375 129.9765625 C150.57871056 131.92709983 150.63008449 133.87763699 150.68169403 135.82816792 C150.73606819 137.9493508 150.7857749 140.07059976 150.83425903 142.19192505 C150.99118891 149.02739359 151.17973499 155.86203505 151.36430931 162.69680214 C151.43069848 165.16651535 151.49595732 167.63625673 151.56111145 170.10600281 C152.0712635 189.29425857 152.71003982 208.47818148 153.36257935 227.66204834 C153.52876267 232.55066404 153.69102089 237.43940124 153.85228729 242.32818127 C153.97516542 246.03252215 154.10086211 249.73676333 154.22739792 253.44098091 C154.2858143 255.16405394 154.34323316 256.88716113 154.39955521 258.61030388 C154.47765721 260.99104735 154.55976491 263.37162219 154.64282227 265.75219727 C154.67480162 266.76714232 154.67480162 266.76714232 154.70742702 267.80259132 C154.84378715 271.58005452 155.11522088 275.31849506 155.48753357 279.08032227 C156.14259398 286.03025398 156.34357463 292.98781562 156.55664062 299.96264648 C156.60415431 301.43966534 156.65194793 302.91667522 156.69999695 304.39367676 C156.82901344 308.38543117 156.95398878 312.37730259 157.07810783 316.36921191 C157.2103148 320.60208936 157.34594368 324.83485743 157.4810791 329.06764221 C157.70854099 336.20851815 157.93344632 343.34947104 158.15673828 350.49047852 C158.38311462 357.7294906 158.61185175 364.96842245 158.84326172 372.20727539 C161.25895995 447.7840343 161.25895995 447.7840343 161.96030235 483.98129845 C162.02751083 487.3989784 162.09976166 490.81655144 162.171875 494.23413086 C162.27436268 499.10125998 162.37420213 503.96842746 162.4699707 508.83569336 C163.25320329 512.03392317 164.69319747 513.6699573 167 516 C170.02418116 516.65813063 170.02418116 516.65813063 173.38232422 516.39794922 C174.63043884 516.35248962 175.87855347 516.30703003 177.16448975 516.26019287 C183.09067402 515.85817311 188.9810102 515.30093824 194.8828125 514.6328125 C210.1668208 513.0093057 225.46614364 511.91474771 240.80836868 510.99885559 C242.91108153 510.87283759 245.01364033 510.74446674 247.11618042 510.61560059 C270.06696999 509.21381284 293.00542995 508.24663617 316 508 C316 508.33 316 508.66 316 509 C345.04 509.33 374.08 509.66 404 510 C404 510.33 404 510.66 404 511 C402.71375229 511.00808685 401.42750458 511.01617371 400.10227966 511.02450562 C387.74056962 511.10335112 375.37895144 511.19138343 363.01736355 511.28752708 C356.6682529 511.33663656 350.31915255 511.38294153 343.9699707 511.421875 C318.36526254 511.58093536 292.78271421 511.83218705 267.19921875 512.94921875 C266.26621885 512.9898431 265.33321896 513.03046745 264.37194633 513.07232285 C237.86923106 514.2527843 211.37443728 516.07524631 185.01318359 519.08569336 C167.73468595 521.02916541 167.73468595 521.02916541 163.5 517.6875 C158.40528887 512.21068553 159.43322257 504.29527786 159.06640625 497.171875 C159.02423037 496.37003532 158.98205448 495.56819565 158.93860054 494.7420578 C157.41973152 465.38447714 156.8133437 435.97877152 156.00228119 406.5949707 C155.70197789 395.72449364 155.39895488 384.85409712 155.08887964 373.98389411 C154.96538327 369.6463987 154.84543607 365.30882516 154.72843349 360.97114992 C154.67292218 358.93263117 154.61577054 356.89416613 154.5579071 354.85571289 C154.4878917 352.3881578 154.4203944 349.92052927 154.35604858 347.45281982 C154.187332 341.66205839 153.85237298 335.94877496 153.22273731 330.19004822 C152.91776809 327.19146081 152.81814357 324.20539888 152.75048828 321.19287109 C152.72008453 319.93268661 152.68968079 318.67250214 152.65835571 317.37413025 C152.64410175 316.70974379 152.62984779 316.04535732 152.6151619 315.36083794 C152.56861447 313.19440696 152.51729845 311.02812953 152.4649353 308.86183167 C152.38879247 305.69656948 152.31444152 302.5312728 152.24145508 299.36593628 C152.04132708 290.7319129 151.82295442 282.0983448 151.6015625 273.46484375 C151.57840721 272.56078608 151.55525192 271.6567284 151.53139496 270.72527504 C150.96605758 248.79236088 150.25229305 226.86470863 149.5 204.9375 C149.46792576 204.00108421 149.43585152 203.06466843 149.40280533 202.0998764 C148.451941 174.39163374 147.42484896 146.68862678 146 119 C142.34184751 119.53246616 140.18696827 120.29044065 137.390625 122.703125 C136.39434082 123.54641357 136.39434082 123.54641357 135.37792969 124.40673828 C134.32460449 125.31915283 134.32460449 125.31915283 133.25 126.25 C131.74176515 127.52602085 130.23128177 128.79938795 128.71875 130.0703125 C127.55666016 131.04726074 127.55666016 131.04726074 126.37109375 132.04394531 C120.63537173 136.77567975 114.65660552 141.20234993 108.72338867 145.68164062 C107.18335384 146.85973782 105.66977346 148.07223212 104.16015625 149.2890625 C100.03575795 152.55576495 96.27716316 153.4716816 90.984375 153.3125 C85.06169151 152.37979394 81.39740734 147.52275283 78 143 C75.43905282 139.21807976 73.00002668 135.36228856 70.5625 131.5 C69.49256369 129.81660245 68.42262624 128.13320563 67.35258484 126.44987488 C66.26539225 124.73791474 65.18018337 123.02471459 64.09570312 121.31103516 C61.00779222 116.43239493 57.91061726 111.55966291 54.8125 106.6875 C54.24088135 105.78773438 53.6692627 104.88796875 53.08032227 103.9609375 C49.25658275 97.94995157 45.39143857 91.96734374 41.5 86 C36.4314269 78.22757409 31.42707119 70.4164905 26.45458984 62.58227539 C22.56082458 56.44832809 18.64942762 50.32606139 14.72387695 44.21240234 C12.67544583 41.01621122 10.63830151 37.8130246 8.6015625 34.609375 C6.52459418 31.34973361 4.42027797 28.12441133 2.2109375 24.953125 C-2.03810262 18.67715761 -3.87535158 14.21152129 -3.57421875 6.55859375 C-2.9343925 3.70766724 -1.91149196 2.17797341 0 0 Z " fill="#1C1C1C" transform="translate(16,194)"/>
<path d="M0 0 C0.99 0.495 0.99 0.495 2 1 C2.06862431 51.10815162 2.12150752 101.2162985 2.15319599 151.32448785 C2.15694824 157.23642622 2.16083119 163.1483645 2.16479492 169.06030273 C2.16558185 170.2372934 2.16636878 171.41428407 2.16717956 172.62694112 C2.18024353 191.69983071 2.20390282 210.77269325 2.23145839 229.84556677 C2.25948502 249.40723389 2.27617045 268.96888682 2.28226548 288.53057319 C2.28638762 300.60708924 2.29942023 312.68352884 2.3237494 324.76002137 C2.33957276 333.03448641 2.34440809 341.30891177 2.34050413 349.58339085 C2.33857728 354.3616665 2.34158943 359.13980829 2.35761642 363.9180603 C2.37217297 368.28970904 2.3729801 372.66113342 2.36269668 377.03279231 C2.36142498 378.61699373 2.36526648 380.20120893 2.37464955 381.78538307 C2.38664119 383.9343708 2.38022974 386.08254234 2.36914349 388.23151684 C2.37028265 389.42649672 2.37142181 390.6214766 2.37259549 391.85266799 C1.95775733 395.35682588 1.1158413 397.20082986 -1 400 C-8.83249512 405.22166341 -22.80593504 401.66950922 -31.8125 400.6875 C-34.58917541 400.40332436 -37.36674391 400.12854123 -40.14453125 399.85546875 C-41.2303801 399.74856216 -41.2303801 399.74856216 -42.33816528 399.63949585 C-111.32399615 392.907525 -180.75122991 392.42433407 -250 392 C-249.67 391.34 -249.34 390.68 -249 390 C-134.1950767 389.37977495 -134.1950767 389.37977495 -92.81884766 392.57226562 C-86.35645869 393.06225463 -79.88846781 393.43231056 -73.41796875 393.796875 C-71.14477126 393.92660411 -68.87157785 394.0564047 -66.59838867 394.1862793 C-63.36231481 394.37090667 -60.12623596 394.5553785 -56.89004517 394.73794556 C-46.8345309 395.31305813 -36.9411748 396.02443851 -26.98583984 397.58325195 C-22.58534413 398.19745033 -18.24985439 398.33094287 -13.8125 398.3125 C-12.99458984 398.32861328 -12.17667969 398.34472656 -11.33398438 398.36132812 C-7.01013465 398.5090962 -7.01013465 398.5090962 -3.31518555 396.60229492 C-0.61669691 393.31471725 -0.8706563 390.80030106 -0.8613348 386.61627769 C-0.85707147 385.61751987 -0.85707147 385.61751987 -0.85272202 384.59858513 C-0.84433538 382.34560824 -0.84310372 380.0926825 -0.84178162 377.83969116 C-0.83721896 376.21691726 -0.83221938 374.59414453 -0.82681805 372.9713732 C-0.81319373 368.49507597 -0.80580621 364.01878637 -0.79939139 359.54247379 C-0.79140624 354.72173222 -0.77770201 349.90100661 -0.76467896 345.08027649 C-0.74288938 336.72237013 -0.72475399 328.36446217 -0.70907402 320.00654221 C-0.68639794 307.92227102 -0.65825201 295.83801748 -0.62875474 283.75376125 C-0.58105104 264.1496507 -0.5377944 244.54553295 -0.49731445 224.94140625 C-0.45797365 205.89354898 -0.41655083 186.84569812 -0.37231445 167.79785156 C-0.36822804 166.03780584 -0.36822804 166.03780584 -0.36405908 164.24220364 C-0.35037984 158.35600482 -0.33665952 152.46980611 -0.32291877 146.58360744 C-0.20891036 97.72241832 -0.10211068 48.86121533 0 0 Z " fill="#010101" transform="translate(581,312)"/>
<path d="M0 0 C0.33 0 0.66 0 1 0 C1.63720135 19.71026447 2.27193706 39.42060698 2.90394497 59.13103867 C3.19762668 68.28840447 3.49204788 77.44574528 3.78833008 86.60302734 C6.28884644 163.91150177 6.28884644 163.91150177 6.96074867 198.98620796 C7.02731435 202.40136478 7.09951889 205.81640181 7.17163086 209.23144531 C7.27425107 214.09946888 7.37418448 218.9675306 7.4699707 223.83569336 C8.25320329 227.03392317 9.69319747 228.6699573 12 231 C15.02418116 231.65813063 15.02418116 231.65813063 18.38232422 231.39794922 C19.63043884 231.35248962 20.87855347 231.30703003 22.16448975 231.26019287 C28.09067402 230.85817311 33.9810102 230.30093824 39.8828125 229.6328125 C55.1668208 228.0093057 70.46614364 226.91474771 85.80836868 225.99885559 C87.91108153 225.87283759 90.01364033 225.74446674 92.11618042 225.61560059 C115.06696999 224.21381284 138.00542995 223.24663617 161 223 C161 223.33 161 223.66 161 224 C190.04 224.33 219.08 224.66 249 225 C249 225.33 249 225.66 249 226 C247.71375229 226.00808685 246.42750458 226.01617371 245.10227966 226.02450562 C232.74056962 226.10335112 220.37895144 226.19138343 208.01736355 226.28752708 C201.6682529 226.33663656 195.31915255 226.38294153 188.9699707 226.421875 C163.36526254 226.58093536 137.78271421 226.83218705 112.19921875 227.94921875 C110.7997189 228.01015528 110.7997189 228.01015528 109.37194633 228.07232285 C82.86923106 229.2527843 56.37443728 231.07524631 30.01318359 234.08569336 C12.73468595 236.02916541 12.73468595 236.02916541 8.5 232.6875 C3.40528887 227.21068553 4.43322257 219.29527786 4.06640625 212.171875 C4.00314242 210.96911549 4.00314242 210.96911549 3.93860054 209.7420578 C2.41973152 180.38447714 1.8133437 150.97877152 1.00228119 121.5949707 C0.70197789 110.72449364 0.39895488 99.85409712 0.08887964 88.98389411 C-0.03461673 84.6463987 -0.15456393 80.30882516 -0.27156651 75.97114992 C-0.32707782 73.93263117 -0.38422946 71.89416613 -0.4420929 69.85571289 C-0.5121083 67.3881578 -0.5796056 64.92052927 -0.64395142 62.45281982 C-0.81382889 56.62221406 -1.12833267 50.86053011 -1.78439808 45.06331348 C-2.07989925 42.23536305 -2.12957009 39.43181916 -2.1328125 36.58984375 C-2.13410156 35.49865234 -2.13539063 34.40746094 -2.13671875 33.28320312 C-2.13285156 32.17912109 -2.12898437 31.07503906 -2.125 29.9375 C-2.12886719 28.79861328 -2.13273438 27.65972656 -2.13671875 26.48632812 C-2.13542969 25.40673828 -2.13414062 24.32714844 -2.1328125 23.21484375 C-2.13168457 22.23636475 -2.13055664 21.25788574 -2.12939453 20.24975586 C-2 18 -2 18 -1 17 C-0.76298761 14.14122091 -0.57780818 11.30116703 -0.4375 8.4375 C-0.39431641 7.63119141 -0.35113281 6.82488281 -0.30664062 5.99414062 C-0.20024738 3.99631195 -0.09959112 1.9981793 0 0 Z " fill="#1E1E1E" transform="translate(171,479)"/>
<path d="M0 0 C114.8049233 -0.62022505 114.8049233 -0.62022505 156.18115234 2.57226562 C162.64354131 3.06225463 169.11153219 3.43231056 175.58203125 3.796875 C177.85522874 3.92660411 180.12842215 4.0564047 182.40161133 4.1862793 C185.63768519 4.37090667 188.87376404 4.5553785 192.10995483 4.73794556 C202.16896746 5.31325821 212.06034522 6.03004169 222.01855469 7.59204102 C226.40111475 8.19171821 230.70904652 8.25765311 235.125 8.1875 C235.93453125 8.18685547 236.7440625 8.18621094 237.578125 8.18554688 C241.24436864 8.15832229 244.45188026 7.99440594 248 7 C248 7.99 248 8.98 248 10 C240.16750488 15.22166341 226.19406496 11.66950922 217.1875 10.6875 C214.41082459 10.40332436 211.63325609 10.12854123 208.85546875 9.85546875 C208.13156952 9.78419769 207.40767029 9.71292664 206.66183472 9.63949585 C137.67600385 2.907525 68.24877009 2.42433407 -1 2 C-0.67 1.34 -0.34 0.68 0 0 Z " fill="#030303" transform="translate(332,702)"/>
<path d="M0 0 C0 0.99 0 1.98 0 3 C-2.20587885 4.46448388 -4.3688026 5.73865334 -6.6875 7 C-17.87595364 13.39472961 -26.88289262 21.92770938 -36.33203125 30.61328125 C-38.92977753 32.93718019 -41.59306989 35.13298594 -44.3125 37.3125 C-50.0548334 41.94421018 -55.400643 46.94823463 -60.77734375 51.9921875 C-63.82137013 54.84546778 -66.92966877 57.61188009 -70.08984375 60.3359375 C-72.36204511 62.31540126 -74.58459872 64.3458317 -76.8125 66.375 C-80.21083552 69.44746773 -83.67590523 72.38442622 -87.25 75.25 C-93.01441228 79.91058865 -98.38851953 84.93779281 -103.79296875 90.00390625 C-107.44991332 93.43090738 -111.19258159 96.74133762 -115 100 C-116.1277177 100.96992009 -117.25530958 101.93998648 -118.3828125 102.91015625 C-123.89144719 107.64431963 -129.41023558 112.36168484 -135 117 C-135.66 116.01 -136.32 115.02 -137 114 C-132.02753937 109.43741682 -127.01850623 104.96950202 -121.75 100.75 C-115.99053574 96.09341188 -110.62051301 91.07165823 -105.22265625 86.0078125 C-102.17862987 83.15453222 -99.07033123 80.38811991 -95.91015625 77.6640625 C-93.63795489 75.68459874 -91.41540128 73.6541683 -89.1875 71.625 C-85.78916448 68.55253227 -82.32409477 65.61557378 -78.75 62.75 C-72.98558772 58.08941135 -67.61148047 53.06220719 -62.20703125 47.99609375 C-57.5360668 43.61883286 -52.70252459 39.4485711 -47.828125 35.30078125 C-46.63526416 34.28403306 -45.44256108 33.26709977 -44.25 32.25 C-43.64414063 31.73445557 -43.03828125 31.21891113 -42.4140625 30.68774414 C-39.01642437 27.78122738 -35.70140894 24.81395945 -32.45141602 21.74365234 C-9.39290492 0 -9.39290492 0 0 0 Z " fill="#1E1E1E" transform="translate(153,79)"/>
<path d="M0 0 C2.29246687 3.4387003 2.29875843 4.87960342 2.43032837 8.94285583 C2.47514847 10.18546677 2.51996857 11.4280777 2.56614685 12.70834351 C2.60629165 14.0886788 2.64624803 15.46901958 2.68603516 16.84936523 C2.73478826 18.30192229 2.78436415 19.75445194 2.83470154 21.20695496 C2.96932113 25.16282829 3.09202829 29.11899176 3.21243334 33.07532001 C3.34094122 37.23979531 3.47952801 41.40393627 3.61679077 45.56813049 C3.84669433 52.58843777 4.06925614 59.60894766 4.28710938 66.62963867 C4.53675859 74.67340138 4.79592399 82.7168093 5.06090128 90.76008075 C5.34499107 99.38627042 5.6220045 108.01267748 5.89699888 116.63916135 C5.97545769 119.08662985 6.05515581 121.5340552 6.13515091 123.98147392 C6.77570447 143.66326405 7.15985527 163.30538903 7 183 C6.34 183.33 5.68 183.66 5 184 C4.00266006 159.23302324 3.07353155 134.46422364 2.234375 109.69140625 C2.1851184 108.23835398 2.1851184 108.23835398 2.13486671 106.75594711 C1.8029688 96.95704831 1.4735015 87.1580714 1.14827919 77.35894871 C1.02390785 73.61893524 0.89840366 69.87896024 0.77272797 66.1389904 C0.71472639 64.40394874 0.65725896 62.66888911 0.60041046 60.93380928 C0.26320074 50.64293612 -0.14791626 40.35918098 -0.66751194 30.07573795 C-0.98922268 23.63185429 -1.15372071 17.20258634 -1.125 10.75 C-1.12886719 9.80382812 -1.13273438 8.85765625 -1.13671875 7.8828125 C-1.12698413 1.12698413 -1.12698413 1.12698413 0 0 Z " fill="#0E0E0E" transform="translate(164,313)"/>
<path d="M0 0 C0.33 0 0.66 0 1 0 C1.52534345 15.83932472 2.0470601 31.67876463 2.56460571 47.51834583 C2.80506063 54.87499863 3.04664681 62.23161085 3.29101562 69.58813477 C3.50431486 76.00942484 3.71536994 82.43078434 3.92386818 88.85223216 C4.03406462 92.24382118 4.14529066 95.63536851 4.25921631 99.02683449 C4.749587 113.6898541 5.1438553 128.32811481 5 143 C4.34 143 3.68 143 3 143 C3 145.64 3 148.28 3 151 C2.67 151 2.34 151 2 151 C1.96463638 149.79445465 1.92927277 148.5889093 1.89283752 147.34683228 C1.55834178 135.95953826 1.22014142 124.57235943 0.87835789 113.18528175 C0.70278174 107.33174465 0.5284895 101.4781753 0.35717773 95.62451172 C0.19165941 89.97044961 0.02270802 84.31649936 -0.14857674 78.6626091 C-0.21317687 76.51060969 -0.27656115 74.35857341 -0.33868217 72.20650101 C-0.42621781 69.18134193 -0.51816184 66.15634544 -0.61108398 63.13134766 C-0.63554092 62.25092804 -0.65999786 61.37050842 -0.68519592 60.46340942 C-0.84806747 55.33360279 -1.22029677 50.26667093 -1.78228664 45.16474819 C-2.07018549 42.30213782 -2.12953128 39.46583322 -2.1328125 36.58984375 C-2.13410156 35.49865234 -2.13539063 34.40746094 -2.13671875 33.28320312 C-2.13285156 32.17912109 -2.12898437 31.07503906 -2.125 29.9375 C-2.12886719 28.79861328 -2.13273438 27.65972656 -2.13671875 26.48632812 C-2.13542969 25.40673828 -2.13414062 24.32714844 -2.1328125 23.21484375 C-2.13168457 22.23636475 -2.13055664 21.25788574 -2.12939453 20.24975586 C-2 18 -2 18 -1 17 C-0.76298761 14.14122091 -0.57780818 11.30116703 -0.4375 8.4375 C-0.39431641 7.63119141 -0.35113281 6.82488281 -0.30664062 5.99414062 C-0.20024738 3.99631195 -0.09959112 1.9981793 0 0 Z " fill="#222222" transform="translate(171,479)"/>
<path d="M0 0 C13.8741985 -0.02344301 27.74839389 -0.04096823 41.62260818 -0.05181217 C48.06579528 -0.05701818 54.50896902 -0.0640742 60.95214844 -0.07543945 C67.17670573 -0.08634966 73.40125022 -0.09229401 79.62581635 -0.09487724 C81.99390616 -0.09671688 84.36199532 -0.1003091 86.73007965 -0.10573006 C90.06127914 -0.11304857 93.39242651 -0.11398642 96.72363281 -0.11352539 C98.17373749 -0.1189183 98.17373749 -0.1189183 99.65313721 -0.12442017 C113.74020577 -0.10349012 113.74020577 -0.10349012 120 1 C120.495 1.99 120.495 1.99 121 3 C95.48910468 3.08837708 69.98586189 2.84435292 44.47705078 2.53643799 C39.32651396 2.4746936 34.1759512 2.41519211 29.02539062 2.35546875 C19.01690139 2.23910125 9.00844191 2.12036506 -1 2 C-0.67 1.34 -0.34 0.68 0 0 Z " fill="#070707" transform="translate(332,702)"/>
<path d="M0 0 C0.99 0.33 1.98 0.66 3 1 C-4.62510968 9.22827485 -19.07165204 12.57441544 -29.5625 15.4375 C-30.91661987 15.80742065 -30.91661987 15.80742065 -32.2980957 16.18481445 C-51.50340992 21.17106533 -72.77304521 20.49878608 -92 16 C-92 15.01 -92 14.02 -92 13 C-91.21496094 13.13277344 -90.42992187 13.26554687 -89.62109375 13.40234375 C-88.04521484 13.66724609 -88.04521484 13.66724609 -86.4375 13.9375 C-85.40496094 14.11152344 -84.37242187 14.28554688 -83.30859375 14.46484375 C-82.21675781 14.64144531 -81.12492187 14.81804688 -80 15 C-78.90945313 15.18304688 -77.81890625 15.36609375 -76.6953125 15.5546875 C-49.74902492 18.80191454 -23.94252829 11.97126415 0 0 Z " fill="#161616" transform="translate(426,43)"/>
<path d="M0 0 C6.6 0.6 6.6 0.6 9 3 C8.625 5.125 8.625 5.125 8 7 C7.4121875 6.2265625 7.4121875 6.2265625 6.8125 5.4375 C5.10753063 3.7759718 5.10753063 3.7759718 2.87109375 4.01953125 C-1.4322638 5.48911321 -4.34405732 8.29969399 -7.75 11.25 C-9.25823485 12.52602085 -10.76871823 13.79938795 -12.28125 15.0703125 C-13.05597656 15.72161133 -13.83070313 16.37291016 -14.62890625 17.04394531 C-20.36462827 21.77567975 -26.34339448 26.20234993 -32.27661133 30.68164062 C-33.81664616 31.85973782 -35.33022654 33.07223212 -36.83984375 34.2890625 C-41.70917485 38.14578406 -45.97991432 38.47778458 -52 38 C-54.5 36.5 -54.5 36.5 -56 35 C-55.505 34.505 -55.505 34.505 -55 34 C-53.20793453 34.14084796 -51.41635083 34.28783701 -49.625 34.4375 C-42.49687623 34.44587617 -38.91597894 31.9546441 -33.62988281 27.39990234 C-31.78508455 25.81540965 -29.90730439 24.2761045 -28.0234375 22.73828125 C-25.11307381 20.35888244 -22.21485922 17.96581208 -19.32421875 15.5625 C-14.14950757 11.27677468 -8.86409368 7.13851401 -3.5625 3.01171875 C-1.19854243 1.23839123 -1.19854243 1.23839123 0 0 Z " fill="#1D1D1D" transform="translate(157,309)"/>
<path d="M0 0 C5.22588808 0.31672049 8.5609835 3.30110819 12 7 C14.94689119 11.71894204 14.76523374 16.62210731 14 22 C12.52192858 26.00206626 10.29903319 29.41848375 8 33 C7.09241003 34.45098562 6.18627357 35.90288099 5.28125 37.35546875 C3.24403445 40.61120887 1.19097018 43.85618433 -0.875 47.09375 C-3.86157223 51.77419902 -6.81195347 56.47647594 -9.75 61.1875 C-10.39533691 62.22136841 -10.39533691 62.22136841 -11.05371094 63.27612305 C-12.03623688 64.85048068 -13.01819074 66.42519532 -14 68 C-14.66 67.67 -15.32 67.34 -16 67 C-14.43381455 60.79708131 -10.95450871 55.91262484 -7.5 50.625 C-6.23523127 48.66304774 -4.97091192 46.70080572 -3.70703125 44.73828125 C-3.08135254 43.77100098 -2.45567383 42.8037207 -1.81103516 41.80712891 C0.75745678 37.82593178 3.29291858 33.82478253 5.8125 29.8125 C6.43318359 28.83434326 6.43318359 28.83434326 7.06640625 27.83642578 C10.29875103 22.68764371 11.51936262 19.12847897 11 13 C8.63046353 8.35570853 5.39467332 5.40413978 1.390625 2.19921875 C0.93171875 1.80347656 0.4728125 1.40773437 0 1 C0 0.67 0 0.34 0 0 Z " fill="#181818" transform="translate(713,182)"/>
<path d="M0 0 C0.66 0 1.32 0 2 0 C3.01192427 11.76439571 3.31800648 23.51214763 3.5625 35.3125 C3.58367889 36.27901489 3.60485779 37.24552979 3.62667847 38.24133301 C3.95316355 53.16292198 4.13379401 68.07453528 4 83 C3.01 83.495 3.01 83.495 2 84 C0.13480023 55.97735776 -0.2462084 28.07912108 0 0 Z " fill="#121212" transform="translate(174,622)"/>
<path d="M0 0 C0.66 0 1.32 0 2 0 C2.29228107 7.60471169 2.57600951 15.20971208 2.85449219 22.81494141 C2.94964627 25.38825271 3.04657808 27.96149905 3.14550781 30.53466797 C3.84241093 48.70392782 4.13803235 66.81848529 4 85 C3.01 85.495 3.01 85.495 2 86 C0.75257724 57.325822 -0.39681758 28.70517337 0 0 Z " fill="#050505" transform="translate(167,411)"/>
<path d="M0 0 C0 0.33 0 0.66 0 1 C29.04 1.33 58.08 1.66 88 2 C88 2.33 88 2.66 88 3 C27.115 3.495 27.115 3.495 -35 4 C-35 3.67 -35 3.34 -35 3 C-36.65 2.67 -38.3 2.34 -40 2 C-40 1.67 -40 1.34 -40 1 C-35.58924441 0.8559378 -31.17843772 0.71358717 -26.76757812 0.57275391 C-25.27016749 0.52471037 -23.77277123 0.47621662 -22.27539062 0.42724609 C-20.11071427 0.35653333 -17.94598968 0.28749368 -15.78125 0.21875 C-14.48251953 0.17685547 -13.18378906 0.13496094 -11.84570312 0.09179688 C-7.89405817 -0.00252883 -3.95251813 -0.01537945 0 0 Z " fill="#494949" transform="translate(332,702)"/>
<path d="M0 0 C5.51163691 1.394713 8.79455828 4.01645252 13 7.625 C22.65111365 15.60639564 32.77131475 21.40629592 44.4765625 25.9921875 C46.72348793 26.88956639 48.85582411 27.88261257 51 29 C50.34 29.66 49.68 30.32 49 31 C33.82667788 29.62060708 17.61903194 16.54886396 6.5 7.0625 C4.36736939 5.30307975 2.53133748 4.07095047 0 3 C0 2.01 0 1.02 0 0 Z " fill="#1C1C1C" transform="translate(284,27)"/>
<path d="M0 0 C20.04225571 0.70575364 20.04225571 0.70575364 28.125 2.0625 C33.8233771 2.98026747 39.36704736 3.18695649 45.125 3.1875 C46.35307373 3.18858765 46.35307373 3.18858765 47.60595703 3.18969727 C51.26129886 3.15574554 54.46196161 2.99158051 58 2 C58 2.99 58 3.98 58 5 C49.85691698 10.42872201 34.94059345 6.56078531 25.625 5.5625 C22.90796453 5.28233836 20.1903776 5.00779494 17.47265625 4.734375 C15.54317139 4.54004883 15.54317139 4.54004883 13.57470703 4.34179688 C7.05907405 3.71880233 0.53775821 3.30728523 -6 3 C-6 2.67 -6 2.34 -6 2 C-4.02 2 -2.04 2 0 2 C0 1.34 0 0.68 0 0 Z " fill="#080808" transform="translate(522,707)"/>
<path d="M0 0 C0.33 0 0.66 0 1 0 C2.19388403 35.47677202 2.19388403 35.47677202 2 52 C0.515 52.495 0.515 52.495 -1 53 C-1.95533673 45.29746159 -2.15216652 37.69354273 -2.125 29.9375 C-2.12886719 28.79861328 -2.13273438 27.65972656 -2.13671875 26.48632812 C-2.13542969 25.40673828 -2.13414062 24.32714844 -2.1328125 23.21484375 C-2.13168457 22.23636475 -2.13055664 21.25788574 -2.12939453 20.24975586 C-2 18 -2 18 -1 17 C-0.76298761 14.14122091 -0.57780818 11.30116703 -0.4375 8.4375 C-0.39431641 7.63119141 -0.35113281 6.82488281 -0.30664062 5.99414062 C-0.20024738 3.99631195 -0.09959112 1.9981793 0 0 Z " fill="#1A1A1A" transform="translate(171,479)"/>
<path d="M0 0 C-2.79115619 2.79115619 -5.53690369 2.45493452 -9.2890625 2.6328125 C-10.0251474 2.67437469 -10.7612323 2.71593689 -11.5196228 2.75875854 C-13.08803821 2.84540254 -14.65671186 2.92747236 -16.22558594 3.00537109 C-18.5677468 3.1221455 -20.90874904 3.25306075 -23.25 3.38671875 C-33.17631219 3.93033445 -43.05901524 4.10714834 -53 4 C-52.67 3.34 -52.34 2.68 -52 2 C-50.25439453 1.60571289 -50.25439453 1.60571289 -48.0078125 1.41015625 C-46.78239746 1.30018311 -46.78239746 1.30018311 -45.53222656 1.18798828 C-44.6965918 1.12595215 -43.86095703 1.06391602 -43 1 C-42.25975586 0.94440918 -41.51951172 0.88881836 -40.75683594 0.83154297 C-38.46357194 0.67747224 -36.17058434 0.55180977 -33.875 0.4375 C-33.03549805 0.3950415 -32.19599609 0.35258301 -31.33105469 0.30883789 C-20.89165079 -0.16611485 -10.44733163 -0.09241652 0 0 Z " fill="#050505" transform="translate(299,704)"/>
<path d="M0 0 C0.66 0.33 1.32 0.66 2 1 C1.67 1.845625 1.34 2.69125 1 3.5625 C-0.30620757 8.05258854 -1.02951791 11.77129922 1.00292969 16.17114258 C2.39193259 18.54084258 3.85665261 20.83609131 5.375 23.125 C6.38616384 24.68794107 7.39408125 26.25298815 8.3984375 27.8203125 C8.86217773 28.54379883 9.32591797 29.26728516 9.80371094 30.01269531 C11.15480431 32.25716471 12.17153237 34.5145971 13 37 C12.01 37 11.02 37 10 37 C8.57373047 35.28759766 8.57373047 35.28759766 7.1171875 32.9140625 C6.58996094 32.06585938 6.06273437 31.21765625 5.51953125 30.34375 C4.97683594 29.4465625 4.43414062 28.549375 3.875 27.625 C3.32457031 26.73554688 2.77414063 25.84609375 2.20703125 24.9296875 C-3.16050502 16.22557463 -3.16050502 16.22557463 -3.25 10.125 C-3.27578125 9.07570312 -3.3015625 8.02640625 -3.328125 6.9453125 C-2.96595818 3.69443414 -2.18132146 2.37649233 0 0 Z " fill="#121212" transform="translate(16,194)"/>
<path d="M0 0 C0.78503906 0.13277344 1.57007813 0.26554687 2.37890625 0.40234375 C3.95478516 0.66724609 3.95478516 0.66724609 5.5625 0.9375 C7.11130859 1.19853516 7.11130859 1.19853516 8.69140625 1.46484375 C9.78324219 1.64144531 10.87507813 1.81804688 12 2 C13.56234375 2.26296875 13.56234375 2.26296875 15.15625 2.53125 C20.40869205 3.17179171 25.65236698 3.36238013 30.9375 3.5625 C32.00291016 3.60568359 33.06832031 3.64886719 34.16601562 3.69335938 C36.77723443 3.79874489 39.38853746 3.90087088 42 4 C42 4.66 42 5.32 42 6 C27.6557536 6.33720652 14.02198022 6.24029254 0 3 C0 2.01 0 1.02 0 0 Z " fill="#060606" transform="translate(334,56)"/>
<path d="M0 0 C5.03520564 0.45707577 7.53004062 1.81885032 11.3125 5.125 C12.25351562 5.93066406 13.19453125 6.73632812 14.1640625 7.56640625 C15.09992187 8.36949219 16.03578125 9.17257813 17 10 C18.72009745 11.36566815 20.44838573 12.72113268 22.1875 14.0625 C22.92355469 14.63097656 23.65960937 15.19945313 24.41796875 15.78515625 C24.94003906 16.18605469 25.46210937 16.58695313 26 17 C25.67 17.66 25.34 18.32 25 19 C21.90378483 18.41360516 20.13534908 17.54667043 17.79296875 15.453125 C17.20580078 14.9375 16.61863281 14.421875 16.01367188 13.890625 C15.41103516 13.34921875 14.80839844 12.8078125 14.1875 12.25 C10.58245427 9.04202038 7.00873745 5.9413485 3.05078125 3.171875 C2.04402344 2.45515625 1.03726563 1.7384375 0 1 C0 0.67 0 0.34 0 0 Z " fill="#1F1F1F" transform="translate(593,84)"/>
<path d="M0 0 C0.99 0.33 1.98 0.66 3 1 C3 1.66 3 2.32 3 3 C1.5234375 4.19140625 1.5234375 4.19140625 -0.625 5.5625 C-1.43324219 6.08070312 -2.24148438 6.59890625 -3.07421875 7.1328125 C-4.52248047 8.05707031 -4.52248047 8.05707031 -6 9 C-7.21608236 9.80803484 -8.43085484 10.61804338 -9.64453125 11.4296875 C-10.90862723 12.26596813 -12.17294981 13.10190635 -13.4375 13.9375 C-14.36006592 14.55830444 -14.36006592 14.55830444 -15.30126953 15.19165039 C-16.82879459 16.18969851 -18.41095724 17.10312992 -20 18 C-20.66 17.67 -21.32 17.34 -22 17 C-20.637328 12.911984 -17.88724666 11.76094074 -14.375 9.625 C-13.09403459 8.82976164 -11.81407448 8.03290151 -10.53515625 7.234375 C-9.61500732 6.66106445 -9.61500732 6.66106445 -8.67626953 6.07617188 C-6.64447463 4.77175126 -4.7260191 3.34630195 -2.8125 1.875 C-1.884375 1.25625 -0.95625 0.6375 0 0 Z " fill="#181818" transform="translate(450,27)"/>
<path d="M0 0 C0.99 0.33 1.98 0.66 3 1 C-0.31198507 5.24348087 -3.8342361 8.77171602 -7.94140625 12.25 C-9.30621971 13.41022093 -10.64817407 14.59791803 -11.96484375 15.8125 C-12.57457031 16.369375 -13.18429688 16.92625 -13.8125 17.5 C-14.35519531 18.0053125 -14.89789063 18.510625 -15.45703125 19.03125 C-15.96621094 19.3509375 -16.47539063 19.670625 -17 20 C-17.99 19.67 -18.98 19.34 -20 19 C-16.68801493 14.75651913 -13.1657639 11.22828398 -9.05859375 7.75 C-7.69378029 6.58977907 -6.35182593 5.40208197 -5.03515625 4.1875 C-4.42542969 3.630625 -3.81570312 3.07375 -3.1875 2.5 C-2.64480469 1.9946875 -2.10210937 1.489375 -1.54296875 0.96875 C-1.03378906 0.6490625 -0.52460937 0.329375 0 0 Z " fill="#161616" transform="translate(91,127)"/>
<path d="M0 0 C5.22588808 0.31672049 8.5609835 3.30110819 12 7 C14.04767641 10.18900425 14.27064312 12.74295296 14.25 16.5 C14.25515625 17.4384375 14.2603125 18.376875 14.265625 19.34375 C13.99595232 22.04047676 13.3732259 23.68949293 12 26 C10.990895 22.972685 11.0097496 21.31494626 11.1875 18.1875 C11.21616498 13.24995705 10.35440132 10.78445277 7 7 C5.17277639 5.33710913 3.31946565 3.7431017 1.390625 2.19921875 C0.93171875 1.80347656 0.4728125 1.40773437 0 1 C0 0.67 0 0.34 0 0 Z " fill="#171717" transform="translate(713,182)"/>
<path d="M0 0 C7.59 0.33 15.18 0.66 23 1 C23 1.66 23 2.32 23 3 C19.58403845 4.13865385 17.17537791 4.02524163 13.58203125 3.87890625 C11.70161133 3.80639648 11.70161133 3.80639648 9.78320312 3.73242188 C8.47287109 3.67634766 7.16253906 3.62027344 5.8125 3.5625 C4.4772337 3.50925765 3.14194728 3.4565174 1.80664062 3.40429688 C-1.46247144 3.27447654 -4.73128919 3.13950464 -8 3 C-8 2.67 -8 2.34 -8 2 C-5.36 1.67 -2.72 1.34 0 1 C0 0.67 0 0.34 0 0 Z " fill="#252525" transform="translate(452,703)"/>
<path d="M0 0 C-1 3 -1 3 -3.00952148 4.16674805 C-3.87134033 4.52808838 -4.73315918 4.88942871 -5.62109375 5.26171875 C-6.55630859 5.65810547 -7.49152344 6.05449219 -8.45507812 6.46289062 C-9.43927734 6.86701172 -10.42347656 7.27113281 -11.4375 7.6875 C-12.41783203 8.10322266 -13.39816406 8.51894531 -14.40820312 8.94726562 C-21.6916564 12 -21.6916564 12 -24 12 C-24 11.01 -24 10.02 -24 9 C-20.56631406 7.49115787 -17.12746451 5.99446599 -13.6875 4.5 C-12.71103516 4.07074219 -11.73457031 3.64148438 -10.72851562 3.19921875 C-9.79072266 2.79316406 -8.85292969 2.38710937 -7.88671875 1.96875 C-7.02264404 1.59169922 -6.15856934 1.21464844 -5.26831055 0.82617188 C-3 0 -3 0 0 0 Z " fill="#171717" transform="translate(177,69)"/>
<path d="M0 0 C-7.10565969 4.73710646 -16.6284396 5.46288661 -25 6 C-25 5.34 -25 4.68 -25 4 C-25.99 3.67 -26.98 3.34 -28 3 C-27.09378906 2.87882812 -26.18757813 2.75765625 -25.25390625 2.6328125 C-17.04150416 1.51568096 -17.04150416 1.51568096 -8.9375 -0.1875 C-5.66617353 -0.97481551 -3.27328011 -1.05589681 0 0 Z " fill="#0E0E0E" transform="translate(401,56)"/>
<path d="M0 0 C0.66 0.33 1.32 0.66 2 1 C1.9375 2.75 1.9375 2.75 1 5 C-4.34882112 9.01161584 -8.42527587 9.53671217 -15 9 C-14.67 8.01 -14.34 7.02 -14 6 C-13.32453125 5.90203125 -12.6490625 5.8040625 -11.953125 5.703125 C-5.04032595 4.62920914 -5.04032595 4.62920914 0 0 Z " fill="#222222" transform="translate(644,331)"/>
<path d="M0 0 C0.33 0 0.66 0 1 0 C1 7.26 1 14.52 1 22 C0.34 22 -0.32 22 -1 22 C-1 28.93 -1 35.86 -1 43 C-1.33 43 -1.66 43 -2 43 C-2.02886751 38.85418113 -2.04675327 34.70838784 -2.0625 30.5625 C-2.07087891 29.37849609 -2.07925781 28.19449219 -2.08789062 26.97460938 C-2.09111328 25.84990234 -2.09433594 24.72519531 -2.09765625 23.56640625 C-2.10289307 22.52427979 -2.10812988 21.48215332 -2.11352539 20.40844727 C-2 18 -2 18 -1 17 C-0.76298761 14.14122091 -0.57780818 11.30116703 -0.4375 8.4375 C-0.39431641 7.63119141 -0.35113281 6.82488281 -0.30664062 5.99414062 C-0.20024738 3.99631195 -0.09959112 1.9981793 0 0 Z " fill="#666666" transform="translate(171,479)"/>
<path d="M0 0 C4.63288815 1.29068732 7.69753944 3.0438844 11.375 6.125 C12.24898438 6.84945312 13.12296875 7.57390625 14.0234375 8.3203125 C15.00183594 9.15175781 15.00183594 9.15175781 16 10 C15.67 10.66 15.34 11.32 15 12 C11.68255982 11.41071786 9.95336664 10.34301581 7.5 8.0625 C5.12471462 5.86536102 2.95275608 4.34039585 0 3 C0 2.01 0 1.02 0 0 Z " fill="#202020" transform="translate(284,27)"/>
<path d="M0 0 C3.47260913 -0.43641407 4.72508708 -0.20031136 7.60546875 1.8984375 C8.45753906 2.71570313 9.30960938 3.53296875 10.1875 4.375 C11.04730469 5.18710938 11.90710938 5.99921875 12.79296875 6.8359375 C14.20181646 8.21735632 15.60479933 9.60479933 17 11 C15.31640625 11.765625 15.31640625 11.765625 13 12 C10.52734375 10.234375 10.52734375 10.234375 7.9375 7.75 C7.08027344 6.94046875 6.22304688 6.1309375 5.33984375 5.296875 C3.55036986 3.54026291 1.76440045 1.78175521 0 0 Z " fill="#202020" transform="translate(699,171)"/>
<path d="M0 0 C2.18359375 0.3359375 2.18359375 0.3359375 4 1 C1.20482229 3.87988007 -1.65445048 6.67564715 -4.625 9.375 C-5.19476563 9.89835937 -5.76453125 10.42171875 -6.3515625 10.9609375 C-6.89554687 11.30382812 -7.43953125 11.64671875 -8 12 C-8.99 11.67 -9.98 11.34 -11 11 C-9.83528191 9.83528191 -8.66908955 8.67200613 -7.49609375 7.515625 C-6.46199193 6.46802315 -5.45543849 5.39276517 -4.47265625 4.296875 C-2.9375 2.625 -2.9375 2.625 0 0 Z " fill="#242424" transform="translate(103,116)"/>
<path d="M0 0 C0.33 0.99 0.66 1.98 1 3 C-7.415 3.495 -7.415 3.495 -16 4 C-16 3.34 -16 2.68 -16 2 C-17.32 1.67 -18.64 1.34 -20 1 C-6.3667426 -0.14806378 -6.3667426 -0.14806378 0 0 Z " fill="#1D1D1D" transform="translate(247,706)"/>
<path d="M0 0 C6.6 0.6 6.6 0.6 9 3 C8.625 5.125 8.625 5.125 8 7 C7.608125 6.484375 7.21625 5.96875 6.8125 5.4375 C5.04901603 3.70576689 5.04901603 3.70576689 2.4375 4.1875 C-0.14441272 4.84627033 -0.14441272 4.84627033 -2 7 C-4.125 6.625 -4.125 6.625 -6 6 C-4 4 -2 2 0 0 Z " fill="#292929" transform="translate(157,309)"/>
<path d="M0 0 C0.55171875 0.25652344 1.1034375 0.51304687 1.671875 0.77734375 C-2.13224334 4.6967384 -6.14388608 8.26837106 -10.328125 11.77734375 C-10.988125 10.78734375 -11.648125 9.79734375 -12.328125 8.77734375 C-10.75934826 7.24149935 -9.17256346 5.72403044 -7.578125 4.21484375 C-6.69640625 3.36792969 -5.8146875 2.52101562 -4.90625 1.6484375 C-2.328125 -0.22265625 -2.328125 -0.22265625 0 0 Z " fill="#1D1D1D" transform="translate(28.328125,184.22265625)"/>
<path d="M0 0 C0.74507812 0.00451172 1.49015625 0.00902344 2.2578125 0.01367188 C4.0885764 0.02540754 5.91929873 0.0433415 7.75 0.0625 C7.75 0.7225 7.75 1.3825 7.75 2.0625 C0.72195301 2.91623239 -6.17278069 3.18359311 -13.25 3.0625 C-12.25 1.0625 -12.25 1.0625 -10.43066406 0.44360352 C-6.96992951 -0.16121138 -3.50057316 -0.04020093 0 0 Z " fill="#0B0B0B" transform="translate(223.25,707.9375)"/>
<path d="M0 0 C6.93 0.33 13.86 0.66 21 1 C21 1.33 21 1.66 21 2 C18.36 2 15.72 2 13 2 C13 2.66 13 3.32 13 4 C6.73 3.67 0.46 3.34 -6 3 C-6 2.67 -6 2.34 -6 2 C-4.02 2 -2.04 2 0 2 C0 1.34 0 0.68 0 0 Z " fill="#2C2C2C" transform="translate(522,707)"/>
<path d="M0 0 C1.18851562 0.00902344 2.37703125 0.01804687 3.6015625 0.02734375 C4.51679688 0.03894531 5.43203125 0.05054687 6.375 0.0625 C6.375 1.0525 6.375 2.0425 6.375 3.0625 C5.71113281 3.03929687 5.04726563 3.01609375 4.36328125 2.9921875 C-0.55271501 2.89171458 -4.07773906 3.05635547 -8.625 5.0625 C-10.9375 4.6875 -10.9375 4.6875 -12.625 4.0625 C-8.05822133 0.56130302 -5.82529933 -0.05711078 0 0 Z " fill="#141414" transform="translate(277.625,26.9375)"/>
<path d="M0 0 C6.27 0.33 12.54 0.66 19 1 C18.01 1.495 18.01 1.495 17 2 C16.67 2.66 16.34 3.32 16 4 C9.73 3.67 3.46 3.34 -3 3 C-2.01 2.67 -1.02 2.34 0 2 C0 1.34 0 0.68 0 0 Z " fill="#0E0E0E" transform="translate(475,704)"/>
<path d="M0 0 C0.99 0.99 1.98 1.98 3 3 C-1.95 4.98 -6.9 6.96 -12 9 C-12 7.68 -12 6.36 -12 5 C-8.04 3.35 -4.08 1.7 0 0 Z " fill="#1F1F1F" transform="translate(264,30)"/>
<path d="M0 0 C0.99 0.33 1.98 0.66 3 1 C3 1.66 3 2.32 3 3 C1.13671875 4.5078125 1.13671875 4.5078125 -1.3125 6.125 C-2.11300781 6.66382813 -2.91351563 7.20265625 -3.73828125 7.7578125 C-6 9 -6 9 -9 9 C-9.33 8.34 -9.66 7.68 -10 7 C-8.4050992 5.80008401 -6.79873853 4.61538682 -5.1875 3.4375 C-3.84751953 2.44556641 -3.84751953 2.44556641 -2.48046875 1.43359375 C-1.66191406 0.96050781 -0.84335937 0.48742187 0 0 Z " fill="#1D1D1D" transform="translate(450,27)"/>
<path d="M0 0 C5.97031739 0.29123499 8.894534 3.02814384 13 7 C12.67 7.66 12.34 8.32 12 9 C8.36679834 8.41083216 6.45533138 6.94481799 3.75 4.5 C3.04359375 3.8709375 2.3371875 3.241875 1.609375 2.59375 C1.07828125 2.0678125 0.5471875 1.541875 0 1 C0 0.67 0 0.34 0 0 Z " fill="#222222" transform="translate(640,122)"/>
<path d="M0 0 C3.66172475 0.62678171 6.8818995 1.64451846 10.3125 3.0625 C11.19550781 3.42472656 12.07851563 3.78695312 12.98828125 4.16015625 C13.65214844 4.43730469 14.31601562 4.71445312 15 5 C14.67 5.66 14.34 6.32 14 7 C8.45949887 6.43174347 3.96284034 4.37113483 -1 2 C-0.67 1.34 -0.34 0.68 0 0 Z " fill="#121212" transform="translate(517,48)"/>
<path d="M0 0 C2.33965571 2.22723982 4.27099166 4.58956647 6.1875 7.1875 C6.71730469 7.90292969 7.24710938 8.61835938 7.79296875 9.35546875 C8.39044922 10.16951172 8.39044922 10.16951172 9 11 C7.68 11 6.36 11 5 11 C-0.69058714 5.17707363 -0.69058714 5.17707363 -1 1 C-0.67 0.67 -0.34 0.34 0 0 Z " fill="#171717" transform="translate(94,332)"/>
<path d="M0 0 C0.56203125 0.23589844 1.1240625 0.47179687 1.703125 0.71484375 C-1.31960032 3.9700864 -4.55405801 6.33305112 -8.296875 8.71484375 C-9.286875 8.05484375 -10.276875 7.39484375 -11.296875 6.71484375 C-9.89314698 5.5120768 -8.47335403 4.32803856 -7.046875 3.15234375 C-6.25796875 2.49105469 -5.4690625 1.82976562 -4.65625 1.1484375 C-2.296875 -0.28515625 -2.296875 -0.28515625 0 0 Z " fill="#252525" transform="translate(138.296875,88.28515625)"/>
<path d="M0 0 C4.29 1.65 8.58 3.3 13 5 C12.01 5.99 11.02 6.98 10 8 C6.04 6.35 2.08 4.7 -2 3 C-1.34 2.01 -0.68 1.02 0 0 Z " fill="#1D1D1D" transform="translate(505,42)"/>
<path d="M0 0 C2.02408755 0.09002398 4.04544287 0.24641038 6.0625 0.4375 C7.71958984 0.59025391 7.71958984 0.59025391 9.41015625 0.74609375 C10.26480469 0.82988281 11.11945313 0.91367187 12 1 C11.67 1.99 11.34 2.98 11 4 C3.61538462 4.36923077 3.61538462 4.36923077 0.5 2.5 C0.005 2.005 -0.49 1.51 -1 1 C-0.67 0.67 -0.34 0.34 0 0 Z " fill="#2A2A2A" transform="translate(102,343)"/>
<path d="M0 0 C2.10388569 -0.05402274 4.20816714 -0.09280256 6.3125 -0.125 C8.07013672 -0.15980469 8.07013672 -0.15980469 9.86328125 -0.1953125 C13 0 13 0 16 2 C12.32612505 2.85298376 8.9552607 3.10789471 5.1875 3.0625 C4.21167969 3.05347656 3.23585938 3.04445313 2.23046875 3.03515625 C1.49441406 3.02355469 0.75835937 3.01195312 0 3 C0 2.01 0 1.02 0 0 Z " fill="#0A0A0A" transform="translate(453,26)"/>
<path d="M0 0 C0.66 0.33 1.32 0.66 2 1 C1.32902328 5.19360449 -0.8558394 8.40334352 -3 12 C-3.99 11.01 -4.98 10.02 -6 9 C-4.02 6.03 -2.04 3.06 0 0 Z " fill="#262626" transform="translate(668,293)"/>
<path d="M0 0 C1.68375165 0.62225605 3.35767228 1.27544365 5 2 C4.67 2.99 4.34 3.98 4 5 C2.56068883 4.54738642 1.12361001 4.08767021 -0.3125 3.625 C-1.11300781 3.36976562 -1.91351562 3.11453125 -2.73828125 2.8515625 C-5 2 -5 2 -8 0 C-5.08249759 -1.45875121 -3.14485878 -0.67830287 0 0 Z " fill="#282828" transform="translate(537,55)"/>
<path d="M0 0 C0.99 0.99 1.98 1.98 3 3 C-1.62 3.33 -6.24 3.66 -11 4 C-10.67 3.01 -10.34 2.02 -10 1 C-6.44646071 -0.1845131 -3.72986522 -0.26641894 0 0 Z " fill="#292929" transform="translate(211,709)"/>
<path d="M0 0 C-0.33 0.66 -0.66 1.32 -1 2 C-4.16015625 2.4140625 -4.16015625 2.4140625 -8.0625 2.625 C-9.35285156 2.69976563 -10.64320313 2.77453125 -11.97265625 2.8515625 C-12.97167969 2.90054688 -13.97070312 2.94953125 -15 3 C-14.67 2.34 -14.34 1.68 -14 1 C-11.85546875 0.33203125 -11.85546875 0.33203125 -9.1875 -0.1875 C-8.31480469 -0.36667969 -7.44210938 -0.54585937 -6.54296875 -0.73046875 C-4.02642222 -0.99719949 -2.38332645 -0.78333107 0 0 Z " fill="#090909" transform="translate(201,711)"/>
<path d="M0 0 C0.66 0.33 1.32 0.66 2 1 C1 4 1 4 -0.77734375 5.203125 C-1.49019531 5.54859375 -2.20304688 5.8940625 -2.9375 6.25 C-4.00291016 6.78367187 -4.00291016 6.78367187 -5.08984375 7.328125 C-6.03537109 7.66070312 -6.03537109 7.66070312 -7 8 C-7.66 7.67 -8.32 7.34 -9 7 C-9 6.01 -9 5.02 -9 4 C-7.54618103 3.30300448 -6.08677047 2.61766134 -4.625 1.9375 C-3.40683594 1.36322266 -3.40683594 1.36322266 -2.1640625 0.77734375 C-1.44992188 0.52082031 -0.73578125 0.26429687 0 0 Z " fill="#242424" transform="translate(185,64)"/>
<path d="M0 0 C0.99 0.33 1.98 0.66 3 1 C0.34345343 4.73884332 -1.58110387 6.64978174 -6 8 C-6 7.01 -6 6.02 -6 5 C-3.1875 2.25 -3.1875 2.25 0 0 Z " fill="#191919" transform="translate(131,330)"/>
<path d="M0 0 C2.12038635 2.61514317 4.13091744 5.19637616 6 8 C5.625 10.1875 5.625 10.1875 5 12 C1.90407165 8.4912812 0.25805377 5.50802601 -1 1 C-0.67 0.67 -0.34 0.34 0 0 Z " fill="#222222" transform="translate(88,322)"/>
<path d="M0 0 C0.66 0.33 1.32 0.66 2 1 C0.6302836 4.99500618 -1.25722422 7.80009492 -4 11 C-4.65234375 9.234375 -4.65234375 9.234375 -5 7 C-4.00390625 5.078125 -4.00390625 5.078125 -2.5625 3.25 C-2.08941406 2.63640625 -1.61632812 2.0228125 -1.12890625 1.390625 C-0.75636719 0.93171875 -0.38382813 0.4728125 0 0 Z " fill="#171717" transform="translate(674,284)"/>
<path d="M0 0 C0.66 0.66 1.32 1.32 2 2 C1.34 2 0.68 2 0 2 C0 2.66 0 3.32 0 4 C-2.30368736 5.06652192 -4.64018187 6.06421005 -7 7 C-7.66 6.67 -8.32 6.34 -9 6 C-9 5.34 -9 4.68 -9 4 C-6.03 2.68 -3.06 1.36 0 0 Z " fill="#252525" transform="translate(220,49)"/>
<path d="M0 0 C0.66 0.33 1.32 0.66 2 1 C1.46930939 4.82097239 0.50298434 7.06171403 -2 10 C-2.99 9.67 -3.98 9.34 -5 9 C-3.35 6.03 -1.7 3.06 0 0 Z " fill="#222222" transform="translate(679,275)"/>
<path d="M0 0 C3.93673644 1.31224548 6.22719294 2.91910327 9 6 C8.01 6.33 7.02 6.66 6 7 C4.17578125 6.00390625 4.17578125 6.00390625 2.3125 4.5625 C1.68988281 4.08941406 1.06726563 3.61632812 0.42578125 3.12890625 C-0.04472656 2.75636719 -0.51523437 2.38382812 -1 2 C-0.67 1.34 -0.34 0.68 0 0 Z " fill="#161616" transform="translate(602,319)"/>
<path d="M0 0 C0.33 0 0.66 0 1 0 C1.05437607 1.58294782 1.09296271 3.16644256 1.125 4.75 C1.14820313 5.63171875 1.17140625 6.5134375 1.1953125 7.421875 C0.99139502 10.1135858 0.36551721 11.69904974 -1 14 C-2.05541976 10.83374072 -1.9777654 9.14523064 -1.625 5.875 C-1.53476562 4.98554688 -1.44453125 4.09609375 -1.3515625 3.1796875 C-1 1 -1 1 0 0 Z " fill="#080808" transform="translate(726,194)"/>
<path d="M0 0 C3.57416264 0.49641148 6.69252492 1.58251068 10 3 C10 3.66 10 4.32 10 5 C5.44262737 4.56179109 2.42346555 4.14958831 -1 1 C-0.67 0.67 -0.34 0.34 0 0 Z " fill="#121212" transform="translate(556,64)"/>
<path d="M0 0 C0.8353125 0.37125 0.8353125 0.37125 1.6875 0.75 C-0.625 3.25 -0.625 3.25 -3.3125 5.75 C-4.3025 5.75 -5.2925 5.75 -6.3125 5.75 C-6.6425 5.09 -6.9725 4.43 -7.3125 3.75 C-2.88173077 -0.31153846 -2.88173077 -0.31153846 0 0 Z " fill="#292929" transform="translate(139.3125,325.25)"/>
<path d="M0 0 C0.99 0.33 1.98 0.66 3 1 C1.625 3.125 1.625 3.125 -1 5 C-4.44750264 4.75143398 -7.68000518 3.93770846 -11 3 C-11 2.67 -11 2.34 -11 2 C-10.06027344 1.90912109 -10.06027344 1.90912109 -9.1015625 1.81640625 C-7.87566406 1.69072266 -7.87566406 1.69072266 -6.625 1.5625 C-5.81289063 1.48128906 -5.00078125 1.40007813 -4.1640625 1.31640625 C-1.95727195 1.10909886 -1.95727195 1.10909886 0 0 Z " fill="#3E3E3E" transform="translate(578,709)"/>
<path d="M0 0 C3.37503669 1.1858237 5.64722731 2.27573689 8 5 C7.01 5.33 6.02 5.66 5 6 C1.8125 4.0625 1.8125 4.0625 -1 2 C-0.67 1.34 -0.34 0.68 0 0 Z " fill="#161616" transform="translate(622,333)"/>
<path d="M0 0 C2.79872437 2.52788007 4.45773019 4.20411134 5 8 C4.01 8 3.02 8 2 8 C0.25 5.6875 0.25 5.6875 -1 3 C-0.67 2.01 -0.34 1.02 0 0 Z " fill="#141414" transform="translate(72,298)"/>
<path d="M0 0 C0.66 0.33 1.32 0.66 2 1 C0.8141763 4.37503669 -0.27573689 6.64722731 -3 9 C-3.33 8.01 -3.66 7.02 -4 6 C-2.0625 2.8125 -2.0625 2.8125 0 0 Z " fill="#141414" transform="translate(684,268)"/>
<path d="M0 0 C4 4.625 4 4.625 4 8 C3.01 8.495 3.01 8.495 2 9 C-1.07692308 4.56923077 -1.07692308 4.56923077 -0.6875 1.6875 C-0.460625 1.130625 -0.23375 0.57375 0 0 Z " fill="#252525" transform="translate(52,266)"/>
<path d="M0 0 C2.79872437 2.52788007 4.45773019 4.20411134 5 8 C4.01 8 3.02 8 2 8 C0.25 5.6875 0.25 5.6875 -1 3 C-0.67 2.01 -0.34 1.02 0 0 Z " fill="#141414" transform="translate(47,259)"/>
<path d="M0 0 C2.1640625 0.2421875 2.1640625 0.2421875 4.625 0.875 C5.44226563 1.07867187 6.25953125 1.28234375 7.1015625 1.4921875 C8.04128906 1.74355469 8.04128906 1.74355469 9 2 C7.68 2.99 6.36 3.98 5 5 C2.69 4.01 0.38 3.02 -2 2 C-1.34 1.34 -0.68 0.68 0 0 Z " fill="#252525" transform="translate(566,68)"/>
<path d="M0 0 C0.66 0.33 1.32 0.66 2 1 C1.50168276 4.68754757 0.89932357 6.60490662 -2 9 C-2.6875 7.3125 -2.6875 7.3125 -3 5 C-1.5625 2.25 -1.5625 2.25 0 0 Z " fill="#222222" transform="translate(696,248)"/>
<path d="M0 0 C3.36591866 1.44253657 5.51047079 3.33264727 8 6 C2.46153846 5.50769231 2.46153846 5.50769231 0.125 2.9375 C-0.431875 1.9784375 -0.431875 1.9784375 -1 1 C-0.67 0.67 -0.34 0.34 0 0 Z " fill="#141414" transform="translate(635,116)"/>
<path d="M0 0 C3.36591866 1.44253657 5.51047079 3.33264727 8 6 C2.46153846 5.50769231 2.46153846 5.50769231 0.125 2.9375 C-0.431875 1.9784375 -0.431875 1.9784375 -1 1 C-0.67 0.67 -0.34 0.34 0 0 Z " fill="#161616" transform="translate(618,102)"/>
<path d="M0 0 C0 0.66 0 1.32 0 2 C-2.64 2.99 -5.28 3.98 -8 5 C-8 4.01 -8 3.02 -8 2 C-4.77208445 -0.1519437 -3.71599191 -0.20086443 0 0 Z " fill="#191919" transform="translate(195,62)"/>
<path d="M0 0 C2.97 0 5.94 0 9 0 C9 0.99 9 1.98 9 3 C5.7 2.67 2.4 2.34 -1 2 C-0.67 1.34 -0.34 0.68 0 0 Z " fill="#010101" transform="translate(275,27)"/>
<path d="M0 0 C0.99 0.33 1.98 0.66 3 1 C1.68 2.65 0.36 4.3 -1 6 C-1.99 5.67 -2.98 5.34 -4 5 C-2.68 3.35 -1.36 1.7 0 0 Z " fill="#0F0F0F" transform="translate(75,141)"/>
<path d="M0 0 C5.53846154 0.61538462 5.53846154 0.61538462 7.875 2.5625 C8.431875 3.2740625 8.431875 3.2740625 9 4 C7.3125 4.8125 7.3125 4.8125 5 5 C2.25 2.5625 2.25 2.5625 0 0 Z " fill="#272727" transform="translate(593,84)"/>
<path d="M0 0 C0.66 0.33 1.32 0.66 2 1 C1.34 2.98 0.68 4.96 0 7 C-0.99 6.67 -1.98 6.34 -3 6 C-1.125 1.125 -1.125 1.125 0 0 Z " fill="#1C1C1C" transform="translate(16,194)"/>
<path d="M0 0 C0.99 0.33 1.98 0.66 3 1 C2.01 2.32 1.02 3.64 0 5 C-1.32 4.67 -2.64 4.34 -4 4 C-2.68 2.68 -1.36 1.36 0 0 Z " fill="#2D2D2D" transform="translate(46,167)"/>
<path d="M0 0 C2.8992226 0.46761655 3.86675182 0.86675182 6 3 C5.01 3.66 4.02 4.32 3 5 C1.68 3.68 0.36 2.36 -1 1 C-0.67 0.67 -0.34 0.34 0 0 Z " fill="#2E2E2E" transform="translate(610,325)"/>
<path d="M0 0 C0.66 0.33 1.32 0.66 2 1 C0.92598892 3.91517292 0.22189824 5.77810176 -2 8 C-2.6875 6.25 -2.6875 6.25 -3 4 C-1.5625 1.75 -1.5625 1.75 0 0 Z " fill="#171717" transform="translate(692,255)"/>
<path d="M0 0 C0.99 0.33 1.98 0.66 3 1 C2.01 2.32 1.02 3.64 0 5 C-1.32 4.67 -2.64 4.34 -4 4 C-2.68 2.68 -1.36 1.36 0 0 Z " fill="#282828" transform="translate(80,137)"/>
<path d="M0 0 C1.32 0.33 2.64 0.66 4 1 C2.68 2.32 1.36 3.64 0 5 C-0.99 4.67 -1.98 4.34 -3 4 C-2.01 2.68 -1.02 1.36 0 0 Z " fill="#0D0D0D" transform="translate(126,96)"/>
<path d="M0 0 C3.25696479 0.41755959 4.63443291 0.63443291 7 3 C5.25 3.6875 5.25 3.6875 3 4 C0.75 2.5625 0.75 2.5625 -1 1 C-0.67 0.67 -0.34 0.34 0 0 Z " fill="#0E0E0E" transform="translate(573,71)"/>
<path d="M0 0 C1.98 0.66 3.96 1.32 6 2 C5.01 2.99 4.02 3.98 3 5 C0.525 4.01 0.525 4.01 -2 3 C-1.34 2.01 -0.68 1.02 0 0 Z " fill="#222222" transform="translate(551,61)"/>
<path d="M0 0 C-1.65 1.32 -3.3 2.64 -5 4 C-5.66 3.67 -6.32 3.34 -7 3 C-6.67 2.01 -6.34 1.02 -6 0 C-3.50907189 -1.24546405 -2.58919267 -0.7767578 0 0 Z " fill="#1E1E1E" transform="translate(435,41)"/>
<path d="M0 0 C2.475 0.99 2.475 0.99 5 2 C5 2.99 5 3.98 5 5 C2.525 4.01 2.525 4.01 0 3 C0 2.01 0 1.02 0 0 Z " fill="#121212" transform="translate(299,38)"/>
<path d="M0 0 C0.99 0.99 1.98 1.98 3 3 C0.525 4.485 0.525 4.485 -2 6 C-2.66 5.01 -3.32 4.02 -4 3 C-2.68 2.01 -1.36 1.02 0 0 Z " fill="#2E2E2E" transform="translate(444,31)"/>
<path d="M0 0 C3.125 0.375 3.125 0.375 6 1 C5.67 1.99 5.34 2.98 5 4 C2.69 3.34 0.38 2.68 -2 2 C-1.34 1.34 -0.68 0.68 0 0 Z " fill="#292929" transform="translate(468,28)"/>
<path d="M0 0 C1.5 1.1875 1.5 1.1875 3 3 C3.1875 5.6875 3.1875 5.6875 3 8 C0.52557871 5.84832931 -0.56238367 4.28212246 -1 1 C-0.67 0.67 -0.34 0.34 0 0 Z " fill="#171717" transform="translate(85,318)"/>
<path d="M0 0 C1.32 1.32 2.64 2.64 4 4 C3.01 4.99 2.02 5.98 1 7 C0.34 5.02 -0.32 3.04 -1 1 C-0.67 0.67 -0.34 0.34 0 0 Z " fill="#212121" transform="translate(44,254)"/>
<path d="M0 0 C0.66 0 1.32 0 2 0 C4 3 4 3 3.625 5.1875 C3.41875 5.785625 3.2125 6.38375 3 7 C1.5 5.75 1.5 5.75 0 4 C0 2.68 0 1.36 0 0 Z " fill="#1D1D1D" transform="translate(20,218)"/>
<path d="M0 0 C2.125 0.375 2.125 0.375 4 1 C2.68 2.32 1.36 3.64 0 5 C-0.66 4.01 -1.32 3.02 -2 2 C-1.34 1.34 -0.68 0.68 0 0 Z " fill="#404040" transform="translate(18,191)"/>
<path d="M0 0 C-0.33 0.99 -0.66 1.98 -1 3 C-2.65 3.33 -4.3 3.66 -6 4 C-6.33 3.34 -6.66 2.68 -7 2 C-4.35261084 0.5393715 -3.10551666 0 0 0 Z " fill="#111111" transform="translate(177,69)"/>
<path d="M0 0 C2.8992226 0.46761655 3.86675182 0.86675182 6 3 C5.01 3.66 4.02 4.32 3 5 C1.68 3.68 0.36 2.36 -1 1 C-0.67 0.67 -0.34 0.34 0 0 Z " fill="#252525" transform="translate(304,42)"/>
</svg>
